<?xml version="1.0" standalone="no"?>
<!DOCTYPE svg PUBLIC "-//W3C//DTD SVG 20010904//EN"
 "http://www.w3.org/TR/2001/REC-SVG-20010904/DTD/svg10.dtd">
<svg version="1.0" xmlns="http://www.w3.org/2000/svg"
 width="1024.000000pt" height="1024.000000pt" viewBox="0 0 1024.000000 1024.000000"
 preserveAspectRatio="xMidYMid meet">
<metadata>
Created by potrace 1.11, written by Peter Selinger 2001-2013
</metadata>
<g transform="translate(0.000000,1024.000000) scale(0.100000,-0.100000)"
fill="#000000" stroke="none">
<path d="M0 5120 l0 -5120 5120 0 5120 0 0 5120 0 5120 -5120 0 -5120 0 0
-5120z m5020 4855 c271 -32 564 -101 810 -191 244 -90 575 -279 790 -450 115
-92 338 -316 439 -442 124 -155 274 -366 262 -370 -7 -2 -1 -20 13 -45 l24
-42 -43 -42 c-26 -24 -46 -36 -49 -30 -6 14 -19 -1 -59 -68 l-28 -48 -23 22
-23 22 -43 -71 c-23 -38 -44 -70 -45 -70 -2 0 -36 41 -76 90 -40 50 -74 90
-76 90 -1 0 -12 -8 -23 -17 -42 -37 -57 -48 -71 -51 -22 -5 -36 -20 -66 -68
-26 -41 -142 -112 -1710 -1051 l-1682 -1008 2 -84 3 -83 -136 -65 c-1022 -490
-1567 -738 -1850 -843 -111 -41 -220 -65 -220 -49 0 4 7 34 15 66 32 124 16
203 -89 423 -76 158 -81 178 -116 400 -6 36 -13 135 -17 221 l-6 156 35 21 35
22 56 -25 c31 -14 82 -30 114 -35 62 -11 143 -4 143 12 0 5 -21 31 -46 59 -58
61 -147 106 -239 120 -39 6 -71 12 -72 13 -7 6 29 113 61 183 24 55 36 95 36
126 0 56 -51 249 -125 473 -87 263 -81 304 100 669 247 497 570 903 1012 1271
290 241 473 330 1109 543 480 161 804 230 1229 265 104 8 516 -4 645 -19z
m-3435 -4894 c-14 -12 -582 -351 -589 -351 -3 0 6 25 21 55 26 53 29 55 127
100 56 25 178 82 271 125 179 83 184 85 170 71z"/>
<path d="M2172 6745 c-130 -76 -254 -163 -365 -255 -53 -45 -97 -83 -97 -85 0
-8 86 2 105 12 27 15 234 90 267 97 15 4 35 15 45 25 10 10 51 35 91 55 l72
36 118 -29 c133 -34 356 -76 452 -85 l65 -7 -49 32 c-133 85 -355 181 -552
239 l-62 18 -90 -53z"/>
<path d="M2084 6321 c-31 -19 -64 -74 -64 -108 1 -37 38 -102 69 -117 62 -33
141 -13 175 44 19 33 21 106 2 138 -32 59 -122 80 -182 43z m142 -46 c12 -18
14 -35 9 -62 -4 -21 -10 -31 -12 -23 -3 8 -22 32 -41 53 -28 28 -44 37 -70 37
-19 0 -31 4 -27 10 3 6 33 10 65 10 52 0 62 -3 76 -25z"/>
<path d="M1059 5962 c-73 -65 -7 -191 87 -168 74 19 99 113 45 167 -40 39 -89
40 -132 1z m123 -26 c6 -14 7 -33 3 -43 -5 -13 -9 -14 -12 -5 -3 8 -26 27 -51
43 l-46 29 47 0 c41 0 49 -4 59 -24z"/>
</g>
</svg>
