<?xml version="1.0" encoding="UTF-8" standalone="no"?>
<!-- Created with Inkscape (http://www.inkscape.org/) -->
<svg
   xmlns:svg="http://www.w3.org/2000/svg"
   xmlns="http://www.w3.org/2000/svg"
   version="1.0"
   width="885.82672"
   height="598.95349"
   id="svg63282">
  <defs
     id="defs63284" />
  <g
     transform="translate(-334.1039,-12.77466)"
     id="layer1">
    <g
       transform="matrix(3.774022,0,0,3.774022,-926.8121,-1696.948)"
       id="g63359">
      <path
         d="M 568.82094,611.72832 L 568.82094,453.02403 L 334.10405,453.02403 L 334.10405,611.72832 L 568.82094,611.72832 z "
         style="font-size:10.0010004px;letter-spacing:0;word-spacing:0;fill:#363567;fill-rule:nonzero;stroke:none;stroke-width:0.44;stroke-linecap:butt;stroke-linejoin:miter;stroke-miterlimit:4;stroke-dasharray:none;font-family:fnt0, &quot;OfficinaSanItcTEE&quot;, Arial"
         id="path58300" />
      <path
         d="M 452.14084,574.99189 C 462.1252,584.03679 475.34465,589.53338 489.85144,589.53338 C 520.88263,589.53338 546.03454,564.38141 546.03454,533.35022 C 546.03454,502.31902 520.88263,477.16712 489.85144,477.16712 C 475.34465,477.16712 462.1252,482.66358 452.14084,491.70861 C 440.79992,501.97109 433.66834,516.8258 433.66834,533.35022 C 433.66834,549.87463 440.79992,564.69444 452.14084,574.99189"
         style="font-size:10.0010004px;letter-spacing:0;word-spacing:0;fill:#e3b837;fill-rule:nonzero;stroke:none;stroke-width:0.43900001;stroke-linecap:butt;stroke-linejoin:miter;stroke-miterlimit:3.86400008;stroke-dasharray:none;font-family:fnt0, &quot;OfficinaSanItcTEE&quot;, Arial"
         id="path58344" />
      <path
         d="M 540.12054,564.55528 L 540.32931,564.55528 C 540.39885,564.55528 540.46846,564.55528 540.53801,564.52057 C 540.60762,564.4858 540.6424,564.41619 540.6424,564.34664 C 540.6424,564.27703 540.60762,564.20748 540.53801,564.17264 C 540.5033,564.13787 540.39885,564.13787 540.32931,564.13787 L 540.12054,564.13787 L 540.12054,564.55528 z M 540.12054,565.45977 L 539.73796,565.45977 L 539.73796,563.85955 L 540.43369,563.85955 C 540.57278,563.85955 540.71194,563.85955 540.81639,563.9291 C 540.95555,564.03355 541.02503,564.17264 541.02503,564.34664 C 541.02503,564.52057 540.92071,564.69444 540.74678,564.76405 L 541.05987,565.45977 L 540.6424,565.45977 L 540.39885,564.83366 L 540.12054,564.83366 L 540.12054,565.45977 z M 540.36401,566.05125 C 541.12942,566.05125 541.7556,565.42507 541.7556,564.65973 C 541.7556,563.89439 541.12942,563.26821 540.36401,563.26821 C 539.59881,563.26821 538.97256,563.89439 538.97256,564.65973 C 538.97256,565.42507 539.59881,566.05125 540.36401,566.05125 M 538.55509,564.65973 C 538.55509,563.65078 539.3552,562.85074 540.36401,562.85074 C 541.37296,562.85074 542.17314,563.65078 542.17314,564.65973 C 542.17314,565.66854 541.37296,566.46872 540.36401,566.46872 C 539.3552,566.46872 538.55509,565.66854 538.55509,564.65973"
         style="font-size:10.0010004px;letter-spacing:0;word-spacing:0;fill:#e3b837;fill-rule:nonzero;stroke:none;stroke-width:0.43900001;stroke-linecap:butt;stroke-linejoin:miter;stroke-miterlimit:3.86400008;stroke-dasharray:none;font-family:fnt0, &quot;OfficinaSanItcTEE&quot;, Arial"
         id="path58346" />
      <path
         d="M 452.14084,574.99189 C 440.79992,564.69444 433.66834,549.87463 433.66834,533.35022 C 433.66834,516.8258 440.79992,501.97109 452.14084,491.70861"
         style="font-size:10.0010004px;letter-spacing:0;word-spacing:0;fill:#e3b837;fill-rule:nonzero;stroke:none;stroke-width:0.43900001;stroke-linecap:butt;stroke-linejoin:miter;stroke-miterlimit:3.86400008;stroke-dasharray:none;font-family:fnt0, &quot;OfficinaSanItcTEE&quot;, Arial"
         id="path58348" />
      <path
         d="M 452.14084,574.99189 C 440.79992,564.69444 433.66834,549.87463 433.66834,533.35022 C 433.66834,516.8258 440.79992,501.97109 452.14084,491.70861"
         style="font-size:10.0010004px;letter-spacing:0;word-spacing:0;fill:none;stroke:#e3b837;stroke-width:0.93928474;stroke-linecap:butt;stroke-linejoin:miter;stroke-miterlimit:4;stroke-dasharray:none;font-family:fnt0, &quot;OfficinaSanItcTEE&quot;, Arial"
         id="path58350" />
      <path
         d="M 470.30044,527.40138 C 470.09167,525.38368 469.74374,523.40069 469.32633,521.4526 L 434.92069,521.4526 C 435.37294,519.43484 435.92951,517.45192 436.55576,515.50376 L 467.69127,515.50376 C 467.03025,513.45129 466.23014,511.46837 465.32565,509.55493 L 438.95609,509.55493 C 439.9302,507.50245 441.00869,505.51953 442.19144,503.60622 L 462.09036,503.60622 C 460.80316,501.51884 459.3421,499.53592 457.81142,497.65738 L 446.47044,497.65738 C 448.20983,495.5353 450.08843,493.55237 452.14084,491.70861 C 442.15667,482.66358 428.93708,477.16712 414.4303,477.16712 C 383.39917,477.16712 358.24714,502.31902 358.24714,533.35022 C 358.24714,564.38141 383.39917,589.53338 414.4303,589.53338 C 428.93708,589.53338 442.15667,584.03679 452.14084,574.99189 C 454.1586,573.14806 456.07191,571.16514 457.81142,569.04305 L 446.47044,569.04305 C 444.90493,567.16445 443.51341,565.18152 442.19144,563.09421 L 462.09036,563.09421 C 463.27318,561.1809 464.3516,559.19798 465.32565,557.14538 L 438.95609,557.14538 C 438.05159,555.19729 437.25148,553.24914 436.55576,551.1966 L 467.69127,551.1966 C 468.35229,549.24845 468.90886,547.26553 469.32633,545.24776 C 469.74374,543.29961 470.09167,541.31669 470.30044,539.29905 C 470.50908,537.35084 470.61353,535.36785 470.61353,533.35022 C 470.61353,531.33245 470.50908,529.34953 470.30044,527.40138"
         style="font-size:10.0010004px;letter-spacing:0;word-spacing:0;fill:#be002e;fill-rule:nonzero;stroke:none;stroke-width:0.27000001;stroke-linecap:butt;stroke-linejoin:miter;stroke-miterlimit:4;stroke-dasharray:none;font-family:fnt0, &quot;OfficinaSanItcTEE&quot;, Arial"
         id="path58352" />
      <path
         d="M 540.12054,546.25671 L 540.32931,546.25671 C 540.39885,546.25671 540.46846,546.29148 540.53801,546.25671 C 540.60762,546.1871 540.6424,546.11755 540.6424,546.04794 C 540.6424,545.97839 540.60762,545.90878 540.53801,545.90878 C 540.5033,545.83923 540.39885,545.87394 540.32931,545.87394 L 540.12054,545.87394 L 540.12054,546.25671 z M 540.12054,547.16121 L 539.73796,547.16121 L 539.73796,545.59569 L 540.43369,545.59569 C 540.57278,545.59569 540.71194,545.59569 540.81639,545.6653 C 540.95555,545.73485 541.02503,545.90878 541.02503,546.04794 C 541.02503,546.25671 540.92071,546.39587 540.74678,546.46535 L 541.05987,547.16121 L 540.6424,547.16121 L 540.39885,546.53496 L 540.12054,546.53496 L 540.12054,547.16121 z M 540.36401,547.75255 C 541.12942,547.75255 541.7556,547.12637 541.7556,546.39587 C 541.7556,545.63046 541.12942,545.00428 540.36401,545.00428 C 539.59881,545.00428 538.97256,545.63046 538.97256,546.39587 C 538.97256,547.12637 539.59881,547.75255 540.36401,547.75255 M 538.55509,546.39587 C 538.55509,545.38699 539.3552,544.55204 540.36401,544.55204 C 541.37296,544.55204 542.17314,545.38699 542.17314,546.39587 C 542.17314,547.36985 541.37296,548.2048 540.36401,548.2048 C 539.3552,548.2048 538.55509,547.36985 538.55509,546.39587"
         style="font-size:10.0010004px;letter-spacing:0;word-spacing:0;fill:white;fill-rule:nonzero;stroke:none;stroke-width:0.27000001;stroke-linecap:butt;stroke-linejoin:miter;stroke-miterlimit:4;stroke-dasharray:none;font-family:fnt0, &quot;OfficinaSanItcTEE&quot;, Arial"
         id="path58354" />
      <path
         d="M 433.04209,549.56154 C 431.16349,550.0834 429.84158,550.32688 428.45,550.32688 C 425.59741,550.32688 423.82319,548.51795 423.82319,545.24776 C 423.82319,544.58687 423.89274,543.89102 423.99706,543.16052 L 424.37983,540.89928 L 424.65808,539.05545 L 427.30202,523.22676 L 433.18125,523.22676 L 432.48552,526.67088 L 436.13828,526.67088 L 435.26849,532.51527 L 431.58103,532.51527 L 430.01551,541.97771 C 429.9459,542.39512 429.91119,542.74304 429.91119,542.95181 C 429.91119,544.13463 430.53731,544.65636 431.99844,544.65636 C 432.69416,544.65636 433.21609,544.58687 433.84227,544.44772 L 433.04209,549.56154 z "
         style="font-size:10.0010004px;letter-spacing:0;word-spacing:0;fill:black;fill-rule:nonzero;stroke:none;stroke-width:0.27000001;stroke-linecap:butt;stroke-linejoin:miter;stroke-miterlimit:4;stroke-dasharray:none;font-family:fnt0, &quot;OfficinaSanItcTEE&quot;, Arial"
         id="path58356" />
      <path
         d="M 448.2446,535.57662 C 448.27944,535.0896 448.27944,534.67212 448.27944,534.39387 C 448.27944,532.51527 447.23578,531.40213 445.39202,531.40213 C 443.47857,531.40213 442.08705,532.89797 441.53042,535.54185 L 448.2446,535.57662 z M 451.86258,549.35277 C 449.77527,549.97902 447.75758,550.29211 445.63549,550.29211 C 439.09525,550.29211 435.26849,546.74373 435.26849,539.92517 C 435.26849,531.9587 439.75627,526.11418 445.91375,526.11418 C 450.92325,526.11418 454.12383,529.38437 454.12383,534.53303 C 454.12383,536.23764 453.91512,537.90747 453.39326,540.23826 L 441.25217,540.23826 C 441.21733,540.62096 441.21733,540.76012 441.21733,540.96889 C 441.21733,543.64754 443.02632,545.03912 446.53999,545.03912 C 448.73169,545.03912 450.67977,544.58687 452.8714,543.57793 L 451.86258,549.35277 z "
         style="font-size:10.0010004px;letter-spacing:0;word-spacing:0;fill:black;fill-rule:nonzero;stroke:none;stroke-width:0.27000001;stroke-linecap:butt;stroke-linejoin:miter;stroke-miterlimit:4;stroke-dasharray:none;font-family:fnt0, &quot;OfficinaSanItcTEE&quot;, Arial"
         id="path58358" />
      <path
         d="M 386.4953,549.87463 L 380.37259,549.87463 L 383.88626,527.95801 L 376.09365,549.87463 L 371.91897,549.87463 L 371.39724,528.0624 L 367.74441,549.87463 L 361.83041,549.87463 L 366.59637,521.34828 L 375.36309,521.34828 L 375.60657,539.02067 L 381.52057,521.34828 L 391.157,521.34828 L 386.4953,549.87463 z "
         style="font-size:10.0010004px;letter-spacing:0;word-spacing:0;fill:black;fill-rule:nonzero;stroke:none;stroke-width:0.27000001;stroke-linecap:butt;stroke-linejoin:miter;stroke-miterlimit:4;stroke-dasharray:none;font-family:fnt0, &quot;OfficinaSanItcTEE&quot;, Arial"
         id="path58360" />
      <path
         d="M 405.94197,549.87463 L 400.68899,549.87463 L 400.79331,547.4743 C 399.47134,549.24845 397.66241,550.25727 394.39222,550.25727 C 391.43525,550.25727 388.96531,547.68294 388.96531,543.92586 C 388.96531,542.81259 389.17401,541.83855 389.41756,540.89928 C 390.39166,537.35084 394.00958,535.0896 399.54088,534.98528 C 400.23674,534.98528 401.31517,534.98528 402.21966,535.0896 C 402.4283,534.32426 402.46314,534.01117 402.46314,533.59369 C 402.46314,532.06302 401.21072,531.57593 398.35813,531.57593 C 396.61875,531.57593 394.6706,531.85431 393.31379,532.27179 L 392.44407,532.51527 L 392.09621,532.58488 L 392.93116,527.40138 C 395.7838,526.53172 397.8015,526.14902 400.02797,526.14902 C 405.28102,526.14902 408.06405,528.51464 408.06405,532.96751 C 408.06405,534.11555 408.1685,534.98528 407.75096,537.55961 L 406.4986,545.76962 L 406.25506,547.26553 L 406.1159,548.41357 L 406.01158,549.21368 L 405.94197,549.87463 z M 401.14124,539.54253 C 400.48022,539.47292 400.37583,539.43821 399.92358,539.43821 C 396.4796,539.43821 394.74015,540.76012 394.74015,542.95181 C 394.74015,544.41288 395.5751,545.31737 396.93184,545.31737 C 399.85397,545.31737 401.03685,542.95181 401.14124,539.54253"
         style="font-size:10.0010004px;letter-spacing:0;word-spacing:0;fill:black;fill-rule:nonzero;stroke:none;stroke-width:0.27000001;stroke-linecap:butt;stroke-linejoin:miter;stroke-miterlimit:4;stroke-dasharray:none;font-family:fnt0, &quot;OfficinaSanItcTEE&quot;, Arial"
         id="path58362" />
      <path
         d="M 481.18917,526.87952 C 482.89378,526.87952 484.494,527.33177 486.65092,528.44503 L 487.65974,522.25271 C 487.10317,522.04401 486.96401,521.97446 486.16384,521.69608 L 483.65912,521.06997 C 482.89378,520.8612 481.98928,520.75688 480.94563,520.75688 C 477.91912,520.75688 476.14483,520.79159 474.301,521.93962 C 473.32702,522.53103 472.10943,523.40069 470.68308,524.9662 L 469.95251,524.75743 L 463.72542,529.1756 L 464.03851,526.67088 L 457.56794,526.67088 L 453.84551,549.87463 L 459.96828,549.87463 L 462.19468,537.38561 C 462.19468,537.38561 463.06441,535.681 463.44711,535.15921 C 464.56031,533.62853 465.56919,533.62853 466.85632,533.66331 C 466.99548,533.66331 467.20425,533.66331 467.27386,533.66331 C 467.09987,535.02005 466.99548,536.48111 466.99548,538.08147 C 466.99548,545.6653 471.30926,550.36172 477.88428,550.36172 C 479.55411,550.36172 481.01518,550.15295 483.24171,549.56154 L 484.32007,543.05613 C 482.30237,544.03018 480.66725,544.51726 479.1367,544.51726 C 475.58826,544.51726 473.46618,541.90809 473.46618,537.55961 C 473.46618,531.29768 476.63185,526.87952 481.18917,526.87952"
         style="font-size:10.0010004px;letter-spacing:0;word-spacing:0;fill:black;fill-rule:nonzero;stroke:none;stroke-width:0.27000001;stroke-linecap:butt;stroke-linejoin:miter;stroke-miterlimit:4;stroke-dasharray:none;font-family:fnt0, &quot;OfficinaSanItcTEE&quot;, Arial"
         id="path58364" />
      <path
         d="M 525.30079,544.41288 C 523.24819,544.41288 522.16977,542.8822 522.16977,539.82078 C 522.16977,535.26353 524.15269,532.02818 526.90102,532.02818 C 529.0231,532.02818 530.13637,533.62853 530.13637,536.5855 C 530.13637,541.17753 528.15338,544.41288 525.30079,544.41288 M 532.74547,521.34828 L 531.38873,529.48869 C 529.9276,527.29706 528.18822,526.25334 525.82252,526.25334 C 522.62201,526.25334 519.66505,528.0624 517.82128,531.50645 L 517.82128,531.47161 L 513.95969,529.1756 L 514.238,526.67088 L 507.80221,526.67088 L 504.07984,549.87463 L 510.16777,549.87463 L 512.18553,537.38561 C 512.18553,537.38561 513.75105,535.6463 514.13368,535.12437 C 515.03818,533.94162 516.04706,533.69801 516.84717,533.66331 C 516.15144,535.61146 515.73397,537.90747 515.73397,540.55135 C 515.73397,546.32619 518.76055,550.15295 523.21342,550.15295 C 525.43995,550.15295 527.17927,549.38761 528.8491,547.57862 L 528.53601,549.87463 L 534.31086,549.87463 L 538.93779,521.34828 L 532.74547,521.34828 z "
         style="font-size:10.0010004px;letter-spacing:0;word-spacing:0;fill:black;fill-rule:nonzero;stroke:none;stroke-width:0.27000001;stroke-linecap:butt;stroke-linejoin:miter;stroke-miterlimit:4;stroke-dasharray:none;font-family:fnt0, &quot;OfficinaSanItcTEE&quot;, Arial"
         id="path58366" />
      <path
         d="M 502.02736,549.87463 L 496.77425,549.87463 L 496.8787,547.4743 C 495.55667,549.24845 493.74767,550.25727 490.47762,550.25727 C 487.55542,550.25727 484.84193,547.71777 484.87671,543.89102 C 484.91154,538.39456 489.05126,534.98528 495.62628,534.98528 C 496.322,534.98528 497.4005,534.98528 498.30499,535.0896 C 498.51376,534.32426 498.54854,534.01117 498.54854,533.59369 C 498.54854,532.06302 497.29611,531.57593 494.44353,531.57593 C 492.70408,531.57593 490.75593,531.85431 489.39919,532.27179 L 488.56424,532.51527 L 488.1816,532.58488 L 489.05126,527.40138 C 491.90391,526.53172 493.88683,526.14902 496.11336,526.14902 C 501.36635,526.14902 504.11461,528.51464 504.11461,532.96751 C 504.11461,534.11555 504.25377,534.98528 503.83636,537.55961 L 502.58393,545.76962 L 502.37529,547.26553 L 502.2013,548.41357 L 502.09691,549.21368 L 502.02736,549.87463 z M 497.2265,539.54253 C 496.60039,539.47292 496.46116,539.43821 496.00891,539.43821 C 492.56493,539.43821 490.82554,540.76012 490.82554,542.95181 C 490.82554,544.41288 491.66043,545.31737 493.01717,545.31737 C 495.93943,545.31737 497.12218,542.95181 497.2265,539.54253"
         style="font-size:10.0010004px;letter-spacing:0;word-spacing:0;fill:black;fill-rule:nonzero;stroke:none;stroke-width:0.27000001;stroke-linecap:butt;stroke-linejoin:miter;stroke-miterlimit:4;stroke-dasharray:none;font-family:fnt0, &quot;OfficinaSanItcTEE&quot;, Arial"
         id="path58368" />
      <path
         d="M 418.67453,531.64561 C 419.85735,531.64561 421.49241,531.74993 423.26656,531.99347 L 424.10151,526.63604 C 422.32723,526.39256 420.06598,526.18379 418.67453,526.18379 C 411.85597,526.18379 409.59473,529.80178 409.59473,534.08078 C 409.59473,536.82904 410.95147,538.91635 414.15198,540.44703 C 416.622,541.59507 417.03947,541.80377 417.03947,542.84736 C 417.03947,544.30856 415.78711,545.1086 413.38665,545.1086 C 411.57765,545.1086 409.87305,544.83035 407.92489,544.20411 L 407.22917,549.52677 L 407.36833,549.56154 L 408.48159,549.80502 C 408.82939,549.87463 409.38609,549.94431 410.08182,550.01379 C 411.50817,550.15295 412.76047,550.22256 413.5258,550.22256 C 420.30959,550.22256 423.09256,547.61345 423.09256,542.49957 C 423.09256,539.33376 421.59673,537.45522 418.53531,536.06371 C 415.96098,534.88089 415.68273,534.70696 415.68273,533.62853 C 415.7175,532.55004 416.79593,531.64561 418.67453,531.64561"
         style="font-size:10.0010004px;letter-spacing:0;word-spacing:0;fill:black;fill-rule:evenodd;stroke:none;stroke-width:0.27000001;stroke-linecap:butt;stroke-linejoin:miter;stroke-miterlimit:4;stroke-dasharray:none;font-family:fnt0, &quot;OfficinaSanItcTEE&quot;, Arial"
         id="path58370" />
      <path
         d="M 489.29487,520.44379 L 488.32076,526.63604 C 486.12913,525.55761 484.56362,525.10536 482.85901,525.10536 C 478.30169,525.10536 475.10118,529.48869 475.10118,535.78539 C 475.10118,540.0991 477.2581,542.70827 480.80654,542.70827 C 482.30237,542.70827 483.97221,542.25602 485.98991,541.24721 L 484.91154,547.75255 C 482.65024,548.37879 481.22395,548.58743 479.51927,548.58743 C 472.94425,548.58743 468.87409,543.85631 468.87409,536.27248 C 468.87409,526.07947 474.50977,518.98259 482.58069,518.98259 C 483.62435,518.98259 484.56362,519.08704 485.32895,519.26097 L 487.83367,519.88709 C 488.59901,520.16547 488.77301,520.23502 489.29487,520.44379"
         style="font-size:10.0010004px;letter-spacing:0;word-spacing:0;fill:white;fill-rule:nonzero;stroke:none;stroke-width:0.27000001;stroke-linecap:butt;stroke-linejoin:miter;stroke-miterlimit:4;stroke-dasharray:none;font-family:fnt0, &quot;OfficinaSanItcTEE&quot;, Arial"
         id="path58372" />
      <path
         d="M 469.70904,524.68795 C 469.5351,524.65311 469.32633,524.65311 469.11756,524.65311 C 467.09987,524.65311 465.98666,525.66193 464.10806,528.41026 L 464.62992,524.89659 L 459.13333,524.89659 L 455.41102,548.0657 L 461.49896,548.0657 C 463.69058,533.90678 464.28199,531.43684 467.20425,531.43684 C 467.37818,531.43684 467.37818,531.43684 467.62166,531.47161 C 468.17836,528.68851 468.9437,526.63604 469.95251,524.75743 L 469.70904,524.68795 z "
         style="font-size:10.0010004px;letter-spacing:0;word-spacing:0;fill:white;fill-rule:nonzero;stroke:none;stroke-width:0.27000001;stroke-linecap:butt;stroke-linejoin:miter;stroke-miterlimit:4;stroke-dasharray:none;font-family:fnt0, &quot;OfficinaSanItcTEE&quot;, Arial"
         id="path58374" />
      <path
         d="M 434.57277,547.78739 C 432.90293,548.30918 431.61573,548.51795 430.22428,548.51795 C 427.09325,548.51795 425.38864,546.74373 425.38864,543.43877 C 425.38864,542.77788 425.45826,542.08203 425.56258,541.35153 L 425.94534,539.09028 L 426.22359,537.28129 L 428.86747,521.4526 L 434.92069,521.4526 L 434.2249,524.89659 L 437.35587,524.89659 L 436.52092,530.53234 L 433.39002,530.53234 L 431.78973,540.20355 C 431.72018,540.62096 431.68535,540.93405 431.68535,541.14276 C 431.68535,542.36034 432.31159,542.8822 433.73782,542.8822 C 434.43367,542.8822 434.99024,542.81259 435.40765,542.63872 L 434.57277,547.78739 z "
         style="font-size:10.0010004px;letter-spacing:0;word-spacing:0;fill:white;fill-rule:nonzero;stroke:none;stroke-width:0.27000001;stroke-linecap:butt;stroke-linejoin:miter;stroke-miterlimit:4;stroke-dasharray:none;font-family:fnt0, &quot;OfficinaSanItcTEE&quot;, Arial"
         id="path58376" />
      <path
         d="M 411.16024,532.20218 C 411.16024,535.12437 412.5866,537.14213 415.78711,538.67287 C 418.25706,539.82078 418.63976,540.16871 418.63976,541.21237 C 418.63976,542.67343 417.56133,543.33445 415.16093,543.33445 C 413.31716,543.33445 411.64727,543.05613 409.69918,542.39512 L 408.86423,547.75255 L 409.10777,547.82222 L 410.25575,548.03086 C 410.60368,548.10048 411.12541,548.17002 411.82126,548.23963 C 413.28233,548.37879 414.39559,548.44827 415.19564,548.44827 C 421.6315,548.44827 424.5886,545.97839 424.5886,540.69051 C 424.5886,537.52477 423.33617,535.6463 420.30959,534.25471 C 417.73526,533.07196 417.45695,532.82836 417.45695,531.74993 C 417.45695,530.49763 418.46583,529.83661 420.41391,529.83661 C 421.6315,529.83661 423.26656,529.97571 424.79724,530.18448 L 425.66703,524.82705 C 424.10151,524.5835 421.70111,524.3748 420.30959,524.3748 C 413.4911,524.3748 411.12541,527.95801 411.16024,532.20218"
         style="font-size:10.0010004px;letter-spacing:0;word-spacing:0;fill:white;fill-rule:nonzero;stroke:none;stroke-width:0.27000001;stroke-linecap:butt;stroke-linejoin:miter;stroke-miterlimit:4;stroke-dasharray:none;font-family:fnt0, &quot;OfficinaSanItcTEE&quot;, Arial"
         id="path58378" />
      <path
         d="M 526.86618,542.60389 C 529.71889,542.60389 531.70182,539.40337 531.70182,534.81128 C 531.70182,531.85431 530.58861,530.25402 528.46647,530.25402 C 525.7182,530.25402 523.73528,533.48937 523.73528,538.04663 C 523.73528,541.07321 524.77893,542.60389 526.86618,542.60389 M 535.87637,548.0657 L 530.10153,548.0657 L 530.41462,545.80446 C 528.70995,547.57862 527.00534,548.37879 524.7441,548.37879 C 520.326,548.37879 517.4038,544.55204 517.4038,538.74236 C 517.4038,531.0542 521.92629,524.54879 527.31843,524.54879 C 529.68412,524.54879 531.49305,525.52277 533.16295,527.71453 L 534.48485,519.574 L 540.5033,519.574 L 535.87637,548.0657 z "
         style="font-size:10.0010004px;letter-spacing:0;word-spacing:0;fill:white;fill-rule:nonzero;stroke:none;stroke-width:0.27000001;stroke-linecap:butt;stroke-linejoin:miter;stroke-miterlimit:4;stroke-dasharray:none;font-family:fnt0, &quot;OfficinaSanItcTEE&quot;, Arial"
         id="path58380" />
      <path
         d="M 449.81011,533.76769 C 449.84482,533.2806 449.84482,532.89797 449.84482,532.58488 C 449.84482,530.70627 448.76639,529.62784 446.9574,529.62784 C 445.00925,529.62784 443.6525,531.08897 443.06116,533.76769 L 449.81011,533.76769 z M 453.21933,547.57862 C 451.13202,548.2048 449.11432,548.51795 446.9574,548.51795 C 440.1389,548.51795 436.59053,544.93474 436.59053,538.11618 C 436.59053,530.18448 441.11301,524.30519 447.27049,524.30519 C 452.27999,524.30519 455.48057,527.57537 455.48057,532.72404 C 455.48057,534.42864 455.27187,536.09854 454.75001,538.4641 L 442.60891,538.4641 C 442.57408,538.81197 442.53924,538.98596 442.53924,539.1946 C 442.53924,541.87339 444.34836,543.23013 447.89667,543.23013 C 450.08843,543.23013 452.03652,542.77788 454.22815,541.76894 L 453.21933,547.57862 z "
         style="font-size:10.0010004px;letter-spacing:0;word-spacing:0;fill:white;fill-rule:nonzero;stroke:none;stroke-width:0.27000001;stroke-linecap:butt;stroke-linejoin:miter;stroke-miterlimit:4;stroke-dasharray:none;font-family:fnt0, &quot;OfficinaSanItcTEE&quot;, Arial"
         id="path58382" />
      <path
         d="M 388.02597,548.0657 L 381.93804,548.0657 L 385.4168,526.14902 L 377.62433,548.0657 L 373.48448,548.0657 L 372.96262,526.28818 L 369.27515,548.0657 L 363.56979,548.0657 L 368.33582,519.574 L 377.10247,519.574 L 377.34601,537.21168 L 383.29472,519.574 L 392.75722,519.574 L 388.02597,548.0657 z "
         style="font-size:10.0010004px;letter-spacing:0;word-spacing:0;fill:white;fill-rule:nonzero;stroke:none;stroke-width:0.27000001;stroke-linecap:butt;stroke-linejoin:miter;stroke-miterlimit:4;stroke-dasharray:none;font-family:fnt0, &quot;OfficinaSanItcTEE&quot;, Arial"
         id="path58384" />
      <path
         d="M 407.50748,548.0657 L 402.4283,548.0657 L 402.56759,545.6653 C 401.00208,547.57862 398.94948,548.48311 396.16651,548.48311 C 392.86154,548.48311 390.6003,545.87394 390.6003,542.15164 C 390.6003,536.48111 394.53138,533.21106 401.28033,533.21106 C 401.97606,533.21106 402.88068,533.2806 403.78518,533.38505 C 403.95905,532.61972 404.02866,532.27179 404.02866,531.88909 C 404.02866,530.32364 402.95016,529.767 400.09758,529.767 C 398.35813,529.767 396.40998,530.01055 395.05324,530.42796 L 394.21835,530.67143 L 393.66172,530.81059 L 394.49667,525.59245 C 397.55802,524.72273 399.54088,524.3748 401.80219,524.3748 C 407.0204,524.3748 409.8035,526.70565 409.8035,531.15852 C 409.8035,532.30656 409.69918,533.17628 409.31648,535.75062 L 408.02934,543.99547 L 407.82057,545.45653 L 407.68142,546.63935 L 407.5771,547.43946 L 407.50748,548.0657 z M 403.05455,537.73354 C 402.4283,537.66393 402.15005,537.66393 401.6978,537.66393 C 398.25375,537.66393 396.4796,538.84681 396.4796,541.17753 C 396.4796,542.60389 397.34925,543.54322 398.67122,543.54322 C 401.17601,543.54322 402.95016,541.17753 403.05455,537.73354"
         style="font-size:10.0010004px;letter-spacing:0;word-spacing:0;fill:white;fill-rule:nonzero;stroke:none;stroke-width:0.27000001;stroke-linecap:butt;stroke-linejoin:miter;stroke-miterlimit:4;stroke-dasharray:none;font-family:fnt0, &quot;OfficinaSanItcTEE&quot;, Arial"
         id="path58386" />
      <path
         d="M 503.59288,548.0657 L 498.51376,548.0657 L 498.65286,545.6653 C 497.08734,547.57862 495.03494,548.48311 492.25184,548.48311 C 488.94694,548.48311 486.6857,545.87394 486.6857,542.15164 C 486.6857,536.48111 490.61677,533.21106 497.4005,533.21106 C 498.09629,533.21106 498.96595,533.2806 499.87044,533.38505 C 500.07921,532.61972 500.11392,532.27179 500.11392,531.88909 C 500.11392,530.32364 499.03562,529.767 496.21768,529.767 C 494.4783,529.767 492.49538,530.01055 491.13863,530.42796 L 490.30368,530.67143 L 489.74712,530.81059 L 490.582,525.59245 C 493.64335,524.72273 495.62628,524.3748 497.88752,524.3748 C 503.14063,524.3748 505.88883,526.70565 505.88883,531.15852 C 505.88883,532.30656 505.81928,533.17628 505.40187,535.75062 L 504.11461,543.99547 L 503.9059,545.45653 L 503.76675,546.63935 L 503.66243,547.43946 L 503.59288,548.0657 z M 499.13994,537.73354 C 498.51376,537.66393 498.23545,537.66393 497.7832,537.66393 C 494.33908,537.66393 492.56493,538.84681 492.56493,541.17753 C 492.56493,542.60389 493.43458,543.54322 494.75662,543.54322 C 497.26134,543.54322 499.03562,541.17753 499.13994,537.73354"
         style="font-size:10.0010004px;letter-spacing:0;word-spacing:0;fill:white;fill-rule:nonzero;stroke:none;stroke-width:0.27000001;stroke-linecap:butt;stroke-linejoin:miter;stroke-miterlimit:4;stroke-dasharray:none;font-family:fnt0, &quot;OfficinaSanItcTEE&quot;, Arial"
         id="path58388" />
      <path
         d="M 519.94336,524.68795 C 519.76937,524.65311 519.5606,524.65311 519.31712,524.65311 C 517.33419,524.65311 516.18622,525.66193 514.30761,528.41026 L 514.86418,524.89659 L 509.33295,524.89659 L 505.61051,548.0657 L 511.73328,548.0657 C 513.8902,533.90678 514.48161,531.43684 517.4038,531.43684 C 517.57767,531.43684 517.57767,531.43684 517.82128,531.47161 C 518.37785,528.68851 519.10835,526.63604 520.15213,524.75743 L 519.94336,524.68795 z "
         style="font-size:10.0010004px;letter-spacing:0;word-spacing:0;fill:white;fill-rule:nonzero;stroke:none;stroke-width:0.27000001;stroke-linecap:butt;stroke-linejoin:miter;stroke-miterlimit:4;stroke-dasharray:none;font-family:fnt0, &quot;OfficinaSanItcTEE&quot;, Arial"
         id="path58390" />
    </g>
  </g>
</svg>
