<?xml version="1.0" encoding="UTF-8"?>
<!DOCTYPE svg PUBLIC "-//W3C//DTD SVG 1.1//EN" "http://www.w3.org/Graphics/SVG/1.1/DTD/svg11.dtd">
<!-- Creator: CorelDRAW X6 -->
<svg xmlns="http://www.w3.org/2000/svg" xml:space="preserve" width="11in" height="8.5in" version="1.1" style="shape-rendering:geometricPrecision; text-rendering:geometricPrecision; image-rendering:optimizeQuality; fill-rule:evenodd; clip-rule:evenodd"
viewBox="0 0 11000 8500"
 xmlns:xlink="http://www.w3.org/1999/xlink">
 <defs>
  <style type="text/css">
   <![CDATA[
    .fil1 {fill:#355177}
    .fil0 {fill:#D23753}
   ]]>
  </style>
 </defs>
 <g id="Capa_x0020_1">
  <metadata id="CorelCorpID_0Corel-Layer"/>
  <g id="_152348688">
   <path class="fil0" d="M7396 1764l2399 0c325,0 592,268 592,595l0 3783c0,327 -266,595 -592,595l-1047 0 0 -357 858 0c241,-124 404,-319 487,-585 74,-134 -206,-353 -208,-372 30,-168 -125,-374 -284,-372l-262 -202 0 -208c2,-75 -91,-164 -180,-131 47,-113 -37,-241 -159,-213 35,-71 -33,-262 -197,-219l-1406 -2314z"/>
   <path class="fil1" d="M1205 1764l5364 0 1747 2259 -82 268 -432 -197 -1028 0c-102,-69 -120,-212 -82,-405l121 0c260,-1741 -2287,-1926 -2241,-443l-601 415 722 0 27 120 -213 481 290 0c65,102 93,227 77,377 -551,152 -789,788 -815,1755l438 0 218 341 -3507 0c-325,0 -592,-268 -592,-595l0 -3783c0,-327 266,-595 592,-595zm585 3404c220,0 399,179 399,399 0,220 -179,399 -399,399 -220,0 -399,-179 -399,-399 0,-220 179,-399 399,-399z"/>
  </g>
 </g>
</svg>
