<?xml version="1.0" encoding="UTF-8"?>
<!DOCTYPE svg PUBLIC "-//W3C//DTD SVG 1.1//EN" "http://www.w3.org/Graphics/SVG/1.1/DTD/svg11.dtd">
<!-- Creator: CorelDRAW X6 -->
<svg xmlns="http://www.w3.org/2000/svg" xml:space="preserve" width="17in" height="11in" version="1.1" style="shape-rendering:geometricPrecision; text-rendering:geometricPrecision; image-rendering:optimizeQuality; fill-rule:evenodd; clip-rule:evenodd"
viewBox="0 0 17000 11000"
 xmlns:xlink="http://www.w3.org/1999/xlink">
 <defs>
  <style type="text/css">
   <![CDATA[
    .fil0 {fill:#FEFEFE;fill-rule:nonzero}
    .fil10 {fill:#272927;fill-rule:nonzero}
    .fil1 {fill:#D5D6D2;fill-rule:nonzero}
    .fil2 {fill:url(#id0);fill-rule:nonzero}
    .fil4 {fill:url(#id1);fill-rule:nonzero}
    .fil7 {fill:url(#id2);fill-rule:nonzero}
    .fil6 {fill:url(#id3);fill-rule:nonzero}
    .fil8 {fill:url(#id4);fill-rule:nonzero}
    .fil9 {fill:url(#id5);fill-rule:nonzero}
    .fil5 {fill:url(#id6);fill-rule:nonzero}
    .fil3 {fill:url(#id7);fill-rule:nonzero}
   ]]>
  </style>
  <linearGradient id="id0" gradientUnits="userSpaceOnUse" x1="7419.38" y1="5347.72" x2="7632.03" y2="5347.72">
   <stop offset="0" style="stop-color:#FEFEFE"/>
   <stop offset="0.109804" style="stop-color:#FEFEFE"/>
   <stop offset="0.301961" style="stop-color:#C7CCD0"/>
   <stop offset="0.529412" style="stop-color:#989FA4"/>
   <stop offset="1" style="stop-color:#989FA4"/>
  </linearGradient>
  <linearGradient id="id1" gradientUnits="userSpaceOnUse" x1="7461.62" y1="6349.22" x2="8508.73" y2="6349.22">
   <stop offset="0" style="stop-color:#FEFEFE"/>
   <stop offset="0.14902" style="stop-color:#FEFEFE"/>
   <stop offset="0.380392" style="stop-color:#C7CCD0"/>
   <stop offset="0.509804" style="stop-color:#989FA4"/>
   <stop offset="1" style="stop-color:#989FA4"/>
  </linearGradient>
  <linearGradient id="id2" gradientUnits="userSpaceOnUse" x1="8508.73" y1="6094.38" x2="9598.17" y2="6094.38">
   <stop offset="0" style="stop-color:#FEFEFE"/>
   <stop offset="0.188235" style="stop-color:#FEFEFE"/>
   <stop offset="0.701961" style="stop-color:#C7CCD0"/>
   <stop offset="0.929412" style="stop-color:#989FA4"/>
   <stop offset="1" style="stop-color:#989FA4"/>
  </linearGradient>
  <linearGradient id="id3" gradientUnits="userSpaceOnUse" x1="7822.21" y1="4407.86" x2="8508.73" y2="4407.86">
   <stop offset="0" style="stop-color:#FEFEFE"/>
   <stop offset="0.239216" style="stop-color:#FEFEFE"/>
   <stop offset="0.588235" style="stop-color:#C7CCD0"/>
   <stop offset="0.780392" style="stop-color:#989FA4"/>
   <stop offset="1" style="stop-color:#989FA4"/>
  </linearGradient>
  <linearGradient id="id4" gradientUnits="userSpaceOnUse" xlink:href="#id3" x1="8508.73" y1="4407.86" x2="9195.34" y2="4407.86">
  </linearGradient>
  <linearGradient id="id5" gradientUnits="userSpaceOnUse" x1="7420.52" y1="4496.97" x2="7856.72" y2="4496.97">
   <stop offset="0" style="stop-color:#FEFEFE"/>
   <stop offset="0.380392" style="stop-color:#FEFEFE"/>
   <stop offset="0.690196" style="stop-color:#C7CCD0"/>
   <stop offset="0.858824" style="stop-color:#989FA4"/>
   <stop offset="1" style="stop-color:#989FA4"/>
  </linearGradient>
  <linearGradient id="id6" gradientUnits="userSpaceOnUse" x1="8946.33" y1="6120.61" x2="8071.21" y2="4870.32">
   <stop offset="0" style="stop-color:#989FA4"/>
   <stop offset="0.101961" style="stop-color:#BBC1C5"/>
   <stop offset="0.25098" style="stop-color:#E4E5E6"/>
   <stop offset="0.74902" style="stop-color:#E4E5E6"/>
   <stop offset="0.901961" style="stop-color:#BBC1C5"/>
   <stop offset="1" style="stop-color:#989FA4"/>
  </linearGradient>
  <linearGradient id="id7" gradientUnits="userSpaceOnUse" x1="9491.32" y1="5178.94" x2="9491.32" y2="4961.17">
   <stop offset="0" style="stop-color:#FEFEFE"/>
   <stop offset="0.341176" style="stop-color:#FEFEFE"/>
   <stop offset="0.45098" style="stop-color:#C7CCD0"/>
   <stop offset="0.560784" style="stop-color:#989FA4"/>
   <stop offset="1" style="stop-color:#989FA4"/>
  </linearGradient>
 </defs>
 <g id="__x0023_Layer_x0020_1">
  <metadata id="CorelCorpID_0Corel-Layer"/>
  <path class="fil0" d="M7496 5765c0,-234 110,-323 132,-544 -31,194 -159,353 -159,544 0,73 10,140 28,201 81,269 321,419 554,478 -359,-91 -555,-392 -555,-679z"/>
  <path class="fil0" d="M9477 5459c-44,-106 -91,-201 -91,-319 0,285 136,365 136,625 0,287 -196,588 -555,679 323,-82 581,-319 581,-679 0,-122 -34,-218 -70,-307z"/>
  <path class="fil1" d="M9428 4631c-73,-22 -127,-77 -159,-165l-74 -204 -35 129c70,316 331,339 331,339l106 -50 -169 -50z"/>
  <path class="fil1" d="M8201 5783l-136 -209 -151 114c0,0 53,2 53,57l0 393 107 -80 0 -278 122 186 113 -85 0 -490 -107 80 0 311z"/>
  <path class="fil1" d="M8633 5328l-120 90 0 -181 -163 122c0,0 53,1 53,57l0 393 110 -82 0 -179 120 -90 0 179 104 -78 0 -489 -104 78 0 181z"/>
  <path class="fil1" d="M8939 5283l0 -365 -163 122c0,0 53,1 53,57l0 393 303 -227c-7,-78 0,-125 0,-125l-193 145z"/>
  <path class="fil2" d="M7632 5140l0 1c0,29 -2,55 -4,80 -31,194 -159,353 -159,544 0,73 10,140 28,201 -14,13 -27,30 -35,48 -27,-76 -42,-160 -42,-249 0,-292 136,-347 136,-625 0,-114 -27,-215 -63,-297l-72 -163 106 50c0,0 106,187 106,409z"/>
  <path class="fil3" d="M9386 5140c0,118 48,213 91,319l57 -2c-35,-88 -72,-173 -72,-316 0,-114 27,-215 63,-297l72 -163 -106 50c0,0 -106,187 -106,409z"/>
  <path class="fil4" d="M8509 6618l0 114c0,0 -110,-118 -125,-135 -119,-33 -193,-37 -352,-77 -249,-64 -478,-246 -570,-505 9,-17 21,-35 35,-48 81,269 321,419 554,478 170,43 288,54 375,85 11,10 83,89 83,89z"/>
  <path class="fil5" d="M8070 6369c190,48 314,54 397,94 0,0 30,28 42,40 12,-13 42,-40 42,-40 83,-40 207,-46 397,-94 239,-61 498,-272 498,-604 0,-237 -136,-324 -136,-625 0,-203 77,-359 77,-359 0,0 -177,-36 -259,-260 0,0 -118,110 -280,110 -203,0 -338,-143 -338,-143 0,0 -135,143 -338,143 -162,0 -280,-110 -280,-110 -82,224 -259,260 -259,260 0,0 77,156 77,359 0,301 -136,388 -136,625 0,332 258,543 498,604zm1288 -604l0 0c0,281 -224,466 -432,519 -150,38 -334,58 -389,90 -13,9 -28,25 -28,25 0,0 -15,-16 -28,-25 -56,-32 -239,-51 -389,-90 -6,-1 -11,-3 -17,-5l1182 -888c40,141 102,233 102,373zm-84 -937l0 0c-24,72 -52,183 -52,312 0,53 4,101 10,144l-1268 953c-159,-82 -298,-238 -305,-454l1457 -1095c51,71 109,114 157,140zm-1479 312l0 0c0,-129 -28,-240 -52,-312 56,-31 126,-85 182,-178 60,34 145,68 245,68 152,0 270,-66 338,-116 68,50 186,116 338,116 24,0 48,-2 70,-6l-1242 933c36,-140 120,-257 120,-505z"/>
  <path class="fil6" d="M8509 4271l0 108c0,0 -134,173 -338,173 -158,0 -314,-161 -314,-161l-35 -129 166 137c55,45 117,75 183,75 89,0 176,-44 231,-99l107 -106z"/>
  <path class="fil7" d="M8509 6732l0 -114c0,0 72,-78 83,-89 87,-31 204,-42 375,-85 323,-82 581,-319 581,-679 0,-122 -34,-218 -70,-307l57 -2c33,82 64,168 64,308 0,391 -291,671 -613,754 -159,40 -233,44 -352,77 -15,16 -125,135 -125,135z"/>
  <path class="fil8" d="M8509 4379l0 -108 107 106c55,54 143,99 231,99 66,0 129,-30 183,-75l166 -137 -35 129c0,0 -156,161 -314,161 -204,0 -338,-173 -338,-173z"/>
  <path class="fil9" d="M7857 4392l-35 -129 -74 204c-32,88 -85,143 -159,165l-169 50 106 50c0,0 260,-23 331,-339z"/>
  <path class="fil10" d="M7522 5141c0,267 -136,328 -136,625 0,428 331,708 638,787 155,38 202,40 342,75 11,12 143,154 143,154 0,0 132,-142 143,-154 140,-35 187,-37 342,-75 307,-79 638,-359 638,-787 0,-297 -136,-358 -136,-625 0,-97 20,-192 61,-283l87 -198 -205 -61c-63,-18 -109,-67 -137,-144l-91 -248 -202 168c-54,44 -108,67 -162,67 -72,0 -153,-35 -208,-89l-130 -129 -130 129c-55,54 -136,89 -208,89 -54,0 -108,-23 -162,-67l-202 -168 -91 248c-28,77 -74,126 -137,144l-205 61 87 198c40,91 61,187 61,283zm67 -509l0 0c73,-22 127,-77 159,-165l74 -204 166 137c55,45 117,75 183,75 89,0 176,-44 231,-99l107 -106 107 106c55,54 143,99 231,99 66,0 129,-30 183,-75l166 -137 74 204c32,88 85,143 159,165l169 50 -72 163c-36,82 -63,183 -63,297 0,144 37,228 72,316 33,82 64,168 64,308 0,391 -291,671 -613,754 -159,40 -233,44 -352,77 -15,16 -125,135 -125,135 0,0 -110,-118 -125,-135 -119,-33 -193,-37 -352,-77 -249,-64 -478,-246 -570,-505 -27,-76 -42,-160 -42,-249 0,-292 136,-347 136,-625 0,-114 -27,-215 -63,-297l-72 -163 169 -50z"/>
  <path class="fil10" d="M8074 6280c6,2 11,3 17,5 150,38 334,58 389,90 12,9 28,25 28,25 0,0 15,-16 28,-25 56,-32 239,-51 389,-90 208,-53 432,-238 432,-519 0,-140 -62,-233 -102,-373l-1182 888z"/>
  <path class="fil10" d="M7675 5645l1242 -933c-22,4 -46,6 -70,6 -152,0 -270,-66 -338,-116 -68,50 -186,116 -338,116 -100,0 -185,-34 -245,-68 -56,93 -126,148 -182,178 24,72 52,183 52,312 0,248 -85,364 -120,505z"/>
  <path class="fil10" d="M7965 6236l1268 -953c-7,-43 -10,-90 -10,-144 0,-129 28,-240 52,-312 -48,-26 -106,-70 -157,-140l-1457 1095c7,215 146,372 305,454zm974 -1318l0 0 0 365 193 -145c0,0 -7,47 0,125l-303 227 0 -393c0,-56 -53,-57 -53,-57l163 -122zm-425 320l0 0 0 181 120 -90 0 -181 104 -78 0 489 -104 78 0 -179 -120 90 0 179 -110 82 0 -393c0,-56 -53,-57 -53,-57l163 -122zm-448 337l0 0 136 209 0 -311 107 -80 0 490 -113 85 -122 -186 0 278 -107 80 0 -393c0,-55 -53,-57 -53,-57l151 -114z"/>
  <path class="fil10" d="M7628 5221c-22,222 -132,310 -132,544 0,287 196,588 555,679 170,43 288,54 375,85 11,10 83,89 83,89 0,0 72,-78 83,-89 87,-31 204,-42 375,-85 359,-91 555,-392 555,-679 0,-260 -136,-341 -136,-625 0,-222 106,-409 106,-409 0,0 -260,-23 -331,-339 0,0 -156,161 -314,161 -204,0 -338,-173 -338,-173 0,0 -134,173 -338,173 -158,0 -314,-161 -314,-161 -70,316 -331,339 -331,339 0,0 106,187 106,409 0,29 -2,56 -4,81zm4 -441l0 0c0,0 177,-36 259,-260 0,0 118,110 280,110 203,0 338,-143 338,-143 0,0 135,143 338,143 162,0 280,-110 280,-110 82,224 259,260 259,260 0,0 -77,156 -77,359 0,301 136,388 136,625 0,332 -258,543 -498,604 -190,48 -314,54 -397,94 0,0 -30,28 -42,40 -11,-13 -42,-40 -42,-40 -83,-40 -207,-46 -397,-94 -239,-61 -498,-272 -498,-604 0,-237 136,-324 136,-625 0,-203 -77,-359 -77,-359z"/>
  <path class="fil10" d="M9329 6531c0,49 39,88 88,88 49,0 88,-39 88,-88 0,-48 -39,-88 -88,-88 -48,0 -88,39 -88,88zm157 0l0 0c0,38 -31,69 -69,69 -38,0 -69,-31 -69,-69 0,-38 31,-69 69,-69 38,0 69,31 69,69z"/>
  <path class="fil10" d="M9381 6581l19 0 0 -41 14 0 19 41 21 0 -20 -42c11,-4 20,-15 20,-28 0,-16 -13,-30 -30,-30l-42 0 0 100zm19 -81l0 0 23 0c6,0 11,5 11,11 0,6 -5,11 -11,11l-23 0 0 -22z"/>
 </g>
</svg>
