<?xml version="1.0" encoding="UTF-8"?>
<!DOCTYPE svg PUBLIC "-//W3C//DTD SVG 1.1//EN" "http://www.w3.org/Graphics/SVG/1.1/DTD/svg11.dtd">
<!-- Creator: CorelDRAW X6 -->
<svg xmlns="http://www.w3.org/2000/svg" xml:space="preserve" width="11.5133in" height="11.5133in" version="1.1" style="shape-rendering:geometricPrecision; text-rendering:geometricPrecision; image-rendering:optimizeQuality; fill-rule:evenodd; clip-rule:evenodd"
viewBox="0 0 11513 11513"
 xmlns:xlink="http://www.w3.org/1999/xlink">
 <defs>
  <style type="text/css">
   <![CDATA[
    .fil2 {fill:#3E4095}
    .fil1 {fill:#ED3237}
    .fil0 {fill:#FEFEFE}
   ]]>
  </style>
 </defs>
 <g id="Camada_x0020_1">
  <metadata id="CorelCorpID_0Corel-Layer"/>
  <rect class="fil0" width="11513" height="11513"/>
  <path class="fil1" d="M7508 11493c62,-118 173,-498 -35,-900 62,-222 -104,-270 -173,-762 69,-145 118,-318 111,-512 -14,-173 -138,-256 -208,-388 -111,-443 -173,-914 -339,-1329 -55,-201 -194,-374 -291,-561 -97,-498 -145,-1031 -298,-1502 28,-21 55,-48 76,-76 -104,-422 -256,-1038 -478,-1225 55,-208 138,-450 166,-637 97,-132 208,-277 422,-374 111,305 159,685 222,990 138,305 332,575 388,852 -353,138 -595,464 -595,845 0,492 395,886 879,886 360,0 672,-228 810,-540l0 4417c0,395 -277,727 -658,817z"/>
  <path class="fil2" d="M7093 11506c-138,-332 -55,-609 -28,-990 -35,-173 -62,-346 -90,-512 -194,-298 -263,-568 -312,-886 -367,-325 -796,-609 -1087,-962 -519,-492 -900,-997 -1163,-1565 -90,-7 -180,-14 -277,-14 -166,-450 -547,-997 -512,-1350 14,-312 111,-595 228,-914 -104,-21 -201,14 -312,-48 -173,-111 -145,-305 -152,-478 76,-346 263,-637 388,-948 125,-270 242,-540 360,-803 166,-187 270,-318 478,-408 180,-21 360,7 554,-35 83,-28 187,-48 222,-104 83,-118 62,-242 97,-388 -111,-62 -97,-381 28,-492 0,-222 90,-519 277,-595l-1606 -14c-464,0 -838,374 -838,838l0 9837c0,464 374,838 838,838l2908 -7zm-3212 -2049l367 0 270 865 0 -865 332 0 0 1447 -374 0 -277 -865 0 865 -318 0 0 -1447zm1025 0l429 0c561,0 415,678 208,692 312,-35 353,755 -152,755l-485 0 0 -1447zm332 235l0 325 83 0c138,0 138,-325 0,-325l-83 0zm0 575l0 402 83 0c159,0 138,-402 0,-402l-83 0zm789 -810l443 0 256 1447 -339 0 -28 -256 -235 0 -42 256 -332 0 277 -1447zm132 935l173 0 -90 -720 -83 720z"/>
  <path class="fil1" d="M6363 37c235,222 381,540 159,928 138,90 -104,249 -159,374 -69,194 -305,305 -277,374 305,187 547,374 851,616 159,201 222,1004 312,1613 132,381 318,706 388,1135 242,90 429,277 526,498l0 -4735c0,-464 -374,-838 -838,-838l-962 35z"/>
 </g>
</svg>
