<?xml version="1.0" encoding="UTF-8"?>
<!DOCTYPE svg PUBLIC "-//W3C//DTD SVG 1.1//EN" "http://www.w3.org/Graphics/SVG/1.1/DTD/svg11.dtd">
<!-- Creator: CorelDRAW X6 -->
<svg xmlns="http://www.w3.org/2000/svg" xml:space="preserve" width="4.31944in" height="5.875in" version="1.1" style="shape-rendering:geometricPrecision; text-rendering:geometricPrecision; image-rendering:optimizeQuality; fill-rule:evenodd; clip-rule:evenodd"
viewBox="0 0 4319 5875"
 xmlns:xlink="http://www.w3.org/1999/xlink">
 <defs>
  <style type="text/css">
   <![CDATA[
    .fil1 {fill:#33446D;fill-rule:nonzero}
    .fil2 {fill:#B73538;fill-rule:nonzero}
    .fil0 {fill:#FEFEFE;fill-rule:nonzero}
   ]]>
  </style>
 </defs>
 <g id="Layer_x0020_1">
  <metadata id="CorelCorpID_0Corel-Layer"/>
  <path class="fil0" d="M2365 293c-82,-94 -148,-197 -202,-304l0 0c-54,107 -121,210 -202,304 -509,590 -1193,787 -1961,96l0 4021c8,457 355,611 676,731l251 71c376,49 741,142 1236,663 495,-522 860,-615 1236,-663l251 -71c320,-120 667,-274 676,-730l0 -4022c-767,692 -1452,494 -1961,-96z"/>
  <path class="fil1" d="M2368 549c-77,-88 -139,-183 -190,-283 -50,100 -113,195 -190,283 -466,533 -1254,603 -1796,174l0 3548c8,413 325,552 619,661l230 64c345,44 680,128 1135,602 1,-1 1,-2 2,-3 1,1 1,2 2,3 455,-474 790,-558 1135,-602l230 -64c293,-109 611,-248 619,-661l0 -3548c-542,429 -1330,359 -1796,-174z"/>
  <path class="fil0" d="M2665 955c0,0 -611,-89 -903,383 -289,466 -85,890 -85,890 0,0 613,103 939,-399 270,-417 49,-874 49,-874z"/>
  <path class="fil1" d="M2009 1313l274 140c10,-11 21,-22 32,-33l-274 -140c-10,11 -21,22 -31,33z"/>
  <path class="fil1" d="M1917 1430l266 136c10,-13 21,-26 32,-38l-270 -138c-10,13 -19,26 -28,40z"/>
  <path class="fil1" d="M1845 1552l257 131c7,-13 15,-25 23,-37l-259 -133c-7,13 -14,25 -21,38z"/>
  <path class="fil1" d="M2281 1080c-13,9 -27,18 -41,28l264 135c12,-10 24,-21 36,-30l-260 -133z"/>
  <path class="fil1" d="M2115 1208l273 140c13,-12 25,-23 37,-35l-271 -139c-13,11 -26,22 -39,34z"/>
  <path class="fil1" d="M2418 1173c156,-136 283,-224 283,-224l-23 -16c0,0 -141,50 -327,205l67 35z"/>
  <path class="fil1" d="M1963 1583c-190,302 -307,651 -307,651l28 17c0,0 146,-357 335,-640l-55 -28z"/>
  <polygon class="fil0" points="3728,1162 3794,1350 4002,1350 3836,1482 3899,1685 3728,1554 3556,1677 3622,1481 3461,1350 3662,1350 "/>
  <polygon class="fil0" points="3728,1776 3794,1964 4002,1964 3836,2097 3899,2299 3728,2168 3556,2292 3622,2096 3461,1964 3662,1964 "/>
  <polygon class="fil0" points="3068,1776 3134,1964 3342,1964 3176,2097 3240,2299 3068,2168 2897,2292 2962,2096 2801,1964 3002,1964 "/>
  <polygon class="fil0" points="3063,1162 3129,1350 3337,1350 3171,1482 3234,1685 3063,1554 2891,1677 2957,1481 2796,1350 2997,1350 "/>
  <polygon class="fil0" points="1286,1162 1352,1350 1560,1350 1394,1482 1458,1685 1286,1554 1114,1677 1180,1481 1020,1350 1220,1350 "/>
  <polygon class="fil0" points="1286,1776 1352,1964 1560,1964 1394,2097 1458,2299 1286,2168 1114,2292 1180,2096 1020,1964 1220,1964 "/>
  <polygon class="fil0" points="626,1776 692,1964 901,1964 734,2097 798,2299 626,2168 455,2292 521,2096 360,1964 560,1964 "/>
  <polygon class="fil0" points="621,1162 687,1350 895,1350 729,1482 792,1685 621,1554 449,1677 515,1481 354,1350 555,1350 "/>
  <path class="fil0" d="M390 2437l0 1704c7,379 293,507 558,607l207 59c311,40 612,118 1022,553 1,-1 1,-2 2,-3 1,1 1,2 2,3 410,-435 712,-513 1022,-553l207 -59c264,-100 551,-228 558,-607l0 -1704 -3577 0z"/>
  <path class="fil2" d="M2284 2662l-429 0 0 270 113 0 0 1561c-70,-8 -129,-12 -129,-12l0 244c0,0 150,16 256,48 86,26 296,124 296,124l0 -270c0,0 -41,-26 -107,-55l0 -873 165 0 40 111 178 0 0 -500 -178 0 -42 119 -163 0 0 -497 208 0 68 158 214 0 0 -428 -490 0z"/>
  <path class="fil2" d="M1652 2662l-408 0 0 270 92 0 0 659 -330 -944 0 -1 -406 0 0 270 90 0 0 1188c-73,-4 -136,-4 -136,-4l22 275c0,0 151,6 260,34 88,22 306,116 306,116l-24 -304c0,0 -43,-26 -112,-53l0 -562 342 978 304 94 0 -1745 88 0 0 -270 -88 0z"/>
  <path class="fil2" d="M3535 3780l0 384c-83,19 -174,40 -250,62l0 -1293 92 -42 0 -228 -500 0 0 228 92 42 0 1419c-54,28 -100,55 -136,78l0 308c100,-58 349,-199 470,-247 232,-93 482,-115 482,-115l0 -595 -250 0z"/>
 </g>
</svg>
