<?xml version="1.0" encoding="UTF-8"?>
<!DOCTYPE svg PUBLIC "-//W3C//DTD SVG 1.1//EN" "http://www.w3.org/Graphics/SVG/1.1/DTD/svg11.dtd">
<!-- Creator: CorelDRAW X6 -->
<svg xmlns="http://www.w3.org/2000/svg" xml:space="preserve" width="2.44444in" height="3.11111in" version="1.1" style="shape-rendering:geometricPrecision; text-rendering:geometricPrecision; image-rendering:optimizeQuality; fill-rule:evenodd; clip-rule:evenodd"
viewBox="0 0 2444 3111"
 xmlns:xlink="http://www.w3.org/1999/xlink">
 <defs>
  <style type="text/css">
   <![CDATA[
    .fil0 {fill:#355382;fill-rule:nonzero}
    .fil2 {fill:#EA494D;fill-rule:nonzero}
    .fil1 {fill:#FEFEFE;fill-rule:nonzero}
   ]]>
  </style>
 </defs>
 <g id="Layer_x0020_1">
  <metadata id="CorelCorpID_0Corel-Layer"/>
  <path class="fil0" d="M0 2721c0,216 175,390 390,390l1498 0c216,0 390,-175 390,-390l0 -2350c0,-210 -166,-381 -374,-385l-13 0c-1,0 -2,0 -3,0l-1498 0c-1,0 -2,0 -3,0l-13 0c-208,3 -374,175 -374,385l0 2350z"/>
  <path class="fil1" d="M390 70c-166,0 -301,135 -301,301l0 2350c0,166 135,301 301,301l1498 0c166,0 301,-135 301,-301l0 -2350c0,-166 -135,-301 -301,-301l-1498 0z"/>
  <path class="fil0" d="M388 116c-141,0 -255,114 -255,255l0 2350c0,141 114,255 255,255l1498 0c141,0 255,-114 255,-255l0 -2350c0,-141 -114,-255 -255,-255l-1498 0z"/>
  <path class="fil0" d="M2279 3028c0,-45 37,-82 83,-82 45,0 82,36 82,81l0 2c-1,45 -37,82 -82,82 -46,0 -83,-37 -83,-83zm152 0c0,-40 -29,-72 -69,-72 -40,0 -70,31 -70,72 0,41 29,72 70,72 40,0 69,-31 69,-72zm-28 46l-14 0 -26 -42 -21 0 0 42 -11 0 0 -92 40 0c24,0 33,9 33,24 0,18 -13,25 -29,25l28 42zm-43 -51c13,0 32,2 32,-17 0,-14 -12,-16 -23,-16l-26 0 0 33 17 0z"/>
  <path class="fil1" d="M459 520l42 0c23,0 41,15 41,38 0,23 -19,38 -48,38l-35 0 0 -76zm-77 169c0,9 -6,15 -16,15l-25 0 0 33 161 0 0 -33 -27 0c-10,0 -16,-6 -16,-15l0 -60 45 0c75,0 115,-20 115,-71 0,-52 -40,-71 -107,-71l-171 0 0 33 25 0c10,0 16,6 16,15l0 154z"/>
  <path class="fil1" d="M943 638l-19 0c-10,0 -16,6 -16,15l0 87 -36 0 -9 -18c-24,17 -54,23 -80,23 -85,0 -145,-45 -145,-129 0,-85 58,-136 145,-136 24,0 53,7 73,25l8 -21 37 0 0 88 -38 0c-1,-37 -25,-57 -67,-57 -47,0 -70,32 -70,98 0,65 22,97 70,97 16,0 34,-6 34,-23l0 -32c0,-9 -6,-15 -16,-15l-21 0 0 -33 149 0 0 33z"/>
  <path class="fil1" d="M1255 708c-27,-5 -28,-11 -39,-33l-81 -186 -62 0 -77 171c-12,25 -19,45 -54,48l0 29 123 0 0 -29 -4 0c-10,-1 -31,-1 -31,-14 0,-5 3,-12 5,-16l5 -12 97 0 5 12c2,5 5,14 5,19 0,11 -25,10 -33,11l0 29 144 0 0 -29 -4 0zm-203 -72l37 -84 34 84 -72 0z"/>
  <path class="fil1" d="M1958 838c39,-39 40,-134 40,-134 -39,-71 -121,-92 -121,-92 -18,-13 -33,-1 -39,5 0,0 0,0 0,0l-655 -400c-48,-25 -114,60 -130,91 -7,11 15,28 29,37 60,39 88,-61 110,-96l634 400c-1,0 2,33 4,34 0,52 41,95 17,171 -7,106 -121,127 -183,192 -57,56 -170,49 -217,95 0,0 -1,1 -1,1 0,0 0,-2 0,-2 -41,-107 -65,-113 -77,-156 -50,-19 -109,-23 -157,2 -46,30 -69,87 -61,137 1,51 73,107 111,129 -24,35 -36,78 -36,96 -6,76 54,148 71,178 71,105 111,189 127,218 2,6 6,10 3,18 -1,2 -61,108 38,259 41,78 99,252 99,253 23,25 -32,9 -37,66 -39,15 -335,242 -402,302 -27,8 -61,7 -72,40 -2,3 -12,32 -18,39 -29,33 -62,91 -68,148 -7,29 1,86 35,101 15,7 22,2 26,0 5,-2 24,-54 26,-60 24,-57 58,-73 138,-152 40,11 57,35 99,45 111,-103 223,-198 332,-304 -17,164 -32,332 -32,377 -7,29 -8,78 12,102 0,0 182,11 216,8 17,-1 18,-12 18,-12 0,0 16,-24 -28,-57 -13,-9 -43,-47 -67,-63 31,-7 64,-12 72,-12 -8,-86 -10,-272 -16,-516 -27,-252 -29,-337 -155,-854 89,-101 86,-164 171,-268 46,-90 117,-272 148,-368zm-379 467c-2,-7 -16,-43 -22,-62 -1,-3 113,-77 113,-77 0,0 1,6 2,14 0,0 -77,115 -93,126z"/>
  <path class="fil1" d="M864 2670c-4,0 -19,-1 -18,-18l0 -17c0,-27 -2,-54 -15,-79 -3,-6 -7,-11 -10,-16 1,-1 3,-2 4,-3l1 -1 1 -1c29,-25 44,-58 44,-98 0,-28 -7,-56 -19,-80l-1 -1 -1 -1c-18,-30 -44,-50 -79,-61 47,-28 72,-76 72,-143 0,0 0,-203 0,-217 9,0 57,0 57,0l-1 -142 -45 0 -88 0c77,-43 122,-123 122,-230 0,-117 -50,-189 -119,-228l51 0 0 -132c0,0 -81,0 -100,0 0,-12 0,-200 0,-237 22,1 38,24 39,59 0,0 2,44 2,44l138 0 0 -246 -560 0 0 246 138 0 2 -44c1,-35 17,-58 39,-59 0,37 0,225 0,237 -19,0 -100,0 -100,0l0 132 43 0c-69,39 -119,111 -119,228 0,107 45,187 122,230l-121 0 0 142c0,0 49,0 57,0 0,7 0,231 0,231 0,44 20,89 69,120l-128 0 0 140c0,0 42,0 54,0 0,2 10,0 8,10 0,39 0,180 0,224 0,12 -8,8 -8,10 -12,0 -54,0 -54,0l0 139 340 0c0,0 0,-40 0,-41 26,29 64,44 113,44l117 0 0 -141 -45 0 0 0zm-260 -736l82 0c0,0 7,0 7,7 0,6 0,186 0,214 0,15 -13,28 -47,28 -34,0 -51,-12 -51,-28 0,0 0,-209 0,-214 0,-6 8,-7 8,-7l0 0zm67 -372c0,85 -19,128 -55,128 -18,0 -55,0 -55,-128 0,-128 39,-128 55,-128 23,0 55,0 55,128l0 0zm-66 1107c-10,0 -10,-9 -10,-9l0 -54 35 0c11,0 16,2 16,14 0,3 0,26 0,26 0,7 0,16 0,23 0,0 -33,0 -42,0l0 0zm-9 -197l0 -59 55 0c16,0 27,12 27,28 0,18 -14,30 -27,30l-56 0z"/>
  <path class="fil2" d="M852 859l-477 0 0 172 65 0 0 -8c3,-66 41,-95 77,-95 24,0 36,5 36,15l0 266c0,14 -9,30 -23,30l-77 0 0 58 329 0 0 -58 -77 0c-13,0 -23,-16 -23,-30l0 -266c0,-10 12,-15 35,-15 37,0 75,29 78,95l0 8 65 0 0 -172 -9 0 0 0z"/>
  <path class="fil2" d="M861 1829l-196 0 0 68 37 0c12,0 20,2 25,6 4,5 5,11 4,22 0,0 0,6 0,6 0,0 0,236 0,236 -2,11 -12,52 -84,52 -55,0 -88,-21 -88,-56l0 -236c0,-27 13,-30 25,-30l44 0 0 -68 -249 0 0 68 28 0c12,0 20,2 25,6 5,5 5,13 4,22 0,0 0,6 0,6l0 234c0,59 53,122 200,122 150,0 170,-73 170,-136l0 -225c0,-27 13,-30 25,-30l32 0 0 -68 0 0z"/>
  <path class="fil2" d="M613 1333c-114,0 -236,58 -236,229 0,146 88,229 236,229 148,0 236,-83 236,-229 0,-171 -122,-229 -236,-229l0 0zm3 394c-40,0 -92,-14 -92,-165 0,-113 30,-165 92,-165 66,0 92,45 92,165 0,110 -32,165 -92,165l0 0z"/>
  <path class="fil2" d="M866 2705c-17,0 -55,-1 -55,-53l0 -17c0,-20 -1,-44 -11,-62 -9,-20 -33,-32 -46,-38 16,-5 35,-15 50,-27 20,-17 31,-40 31,-70 0,-22 -5,-44 -15,-64 -21,-35 -57,-52 -113,-52 0,0 -328,-1 -328,-1l0 67c0,0 24,0 42,0 19,0 21,18 21,18 0,0 1,208 1,275 0,11 -10,23 -20,23l-44 0 0 67 271 0 0 -67 -67 0c-10,0 -21,-13 -21,-24 0,0 0,-83 0,-110 3,0 81,0 81,0 9,0 44,4 43,46l-1 29c0,25 -2,45 9,74 18,38 51,56 102,56l80 0 0 -69 -9 0 0 0zm-307 -328c14,0 61,0 95,0 31,0 53,14 59,37 4,15 4,38 -3,56 -9,25 -29,37 -57,37 0,0 -74,0 -95,0 0,-15 0,-118 0,-121l0 -11z"/>
 </g>
</svg>
