<?xml version="1.0" encoding="UTF-8"?>
<!DOCTYPE svg PUBLIC "-//W3C//DTD SVG 1.1//EN" "http://www.w3.org/Graphics/SVG/1.1/DTD/svg11.dtd">
<!-- Creator: CorelDRAW X6 -->
<svg xmlns="http://www.w3.org/2000/svg" xml:space="preserve" width="6.76389in" height="4.15278in" version="1.1" style="shape-rendering:geometricPrecision; text-rendering:geometricPrecision; image-rendering:optimizeQuality; fill-rule:evenodd; clip-rule:evenodd"
viewBox="0 0 6764 4153"
 xmlns:xlink="http://www.w3.org/1999/xlink">
 <defs>
  <style type="text/css">
   <![CDATA[
    .fil0 {fill:#373435;fill-rule:nonzero}
    .fil1 {fill:#FEFEFE;fill-rule:nonzero}
    .fil2 {fill:url(#id0)}
    .fil4 {fill:url(#id1)}
    .fil5 {fill:url(#id2)}
    .fil3 {fill:url(#id3)}
   ]]>
  </style>
  <linearGradient id="id0" gradientUnits="userSpaceOnUse" x1="690.248" y1="2477.61" x2="2740.58" y2="817.291">
   <stop offset="0" style="stop-color:#6F2D2C"/>
   <stop offset="0.0117647" style="stop-color:#6F2D2C"/>
   <stop offset="0.14902" style="stop-color:#A63434"/>
   <stop offset="0.341176" style="stop-color:#EE3738"/>
   <stop offset="0.529412" style="stop-color:#C93A3A"/>
   <stop offset="0.670588" style="stop-color:#AB3A3C"/>
   <stop offset="0.788235" style="stop-color:#C93A3A"/>
   <stop offset="0.988235" style="stop-color:#EE3738"/>
   <stop offset="1" style="stop-color:#EE3738"/>
  </linearGradient>
  <linearGradient id="id1" gradientUnits="userSpaceOnUse" xlink:href="#id0" x1="4087.47" y1="2441.06" x2="6048.73" y2="852.866">
  </linearGradient>
  <linearGradient id="id2" gradientUnits="userSpaceOnUse" xlink:href="#id0" x1="4107.15" y1="2441.05" x2="6068.4" y2="852.87">
  </linearGradient>
  <linearGradient id="id3" gradientUnits="userSpaceOnUse" xlink:href="#id0" x1="2497.54" y1="2398.82" x2="4354.43" y2="895.134">
  </linearGradient>
 </defs>
 <g id="Layer_x0020_1">
  <metadata id="CorelCorpID_0Corel-Layer"/>
  <polygon class="fil0" points="0,4153 6764,4153 6764,0 0,0 "/>
  <path class="fil1" d="M1058 2585c-101,0 -207,-53 -270,-135 -52,-68 -69,-151 -46,-232l420 -1509 699 0 -14 50c-95,340 -345,1230 -352,1263 0,2 -1,5 -2,8 -4,17 -7,31 0,40 5,6 27,26 114,27 6,0 11,0 17,0 93,0 97,-12 119,-94l361 -1295 686 0 -14 50c-4,14 -402,1436 -421,1512 -38,147 -80,314 -480,314 -172,0 -316,0 -435,0 -83,0 -154,0 -214,0 -72,0 -127,0 -167,0l-2 0z"/>
  <path class="fil0" d="M800 2248l412 -1480 617 0c0,0 -346,1234 -353,1266 -6,32 -42,120 151,122 139,3 150,-34 174,-122 56,-200 353,-1266 353,-1266l605 0c0,0 -402,1435 -421,1513 -38,149 -76,284 -442,284 -440,0 -696,-1 -816,0 -150,1 -329,-138 -280,-317z"/>
  <path class="fil2" d="M761 2229l412 -1480 617 0c0,0 -346,1234 -353,1266 -6,32 -42,120 151,122 139,3 150,-34 174,-122 56,-200 353,-1266 353,-1266l605 0c0,0 -401,1435 -421,1513 -38,150 -76,284 -442,284 -440,0 -696,-1 -816,0 -150,1 -329,-138 -280,-317z"/>
  <path class="fil1" d="M2877 1202l132 -473 1397 0 -132 473 -1397 0zm-391 1403l338 -1212 1397 0 -132 472 -704 0 -206 740 -693 0z"/>
  <path class="fil0" d="M2558 2565l611 0 206 -740 704 0 110 -394 -1315 0 -316 1133zm500 -1797l1315 0 -110 394 -1315 0 110 -394z"/>
  <path class="fil3" d="M2518 2545l611 0 206 -740 704 0 110 -394 -1315 0 -316 1133zm500 -1797l1315 0 -110 394 -1315 0 110 -394z"/>
  <path class="fil4" d="M4512 1012c44,-152 122,-264 346,-264 325,0 658,0 770,0 209,0 404,134 292,394 0,0 -597,0 -685,0 -141,0 -152,42 -161,73 -20,73 -208,748 -216,777 -22,77 -27,158 84,158 175,0 741,0 741,0 0,0 15,395 -472,395 -487,0 -622,0 -702,0 -171,0 -405,-72 -314,-395 24,-84 282,-1016 317,-1138z"/>
  <path class="fil1" d="M4549 2585c-84,0 -236,-16 -320,-127 -59,-78 -70,-185 -32,-318 8,-28 42,-149 84,-304 88,-318 209,-753 233,-835 42,-145 120,-292 383,-292l770 0c141,0 262,55 322,146 38,57 69,157 6,303l-10 24 -26 0c0,0 -265,0 -468,0 -102,0 -187,0 -217,0l-2 0c-109,0 -115,24 -121,43l-18 64c-52,188 -192,689 -199,714 -17,59 -11,83 -4,93 9,12 33,15 50,15l779 0 1 38c0,7 5,169 -116,295 -90,93 -223,141 -395,141l-702 0z"/>
  <path class="fil0" d="M4571 1032c44,-152 122,-264 346,-264 325,0 658,0 770,0 209,0 404,134 292,394 0,0 -597,0 -685,0 -141,0 -152,42 -161,73 -20,73 -208,748 -216,777 -22,77 -27,158 84,158 175,0 741,0 741,0 0,0 15,395 -472,395 -487,0 -622,0 -702,0 -171,0 -405,-72 -314,-395 24,-84 282,-1016 317,-1138z"/>
  <path class="fil5" d="M4532 1012c44,-152 122,-264 346,-264 325,0 658,0 770,0 209,0 404,134 292,394 0,0 -597,0 -685,0 -141,0 -152,42 -161,73 -20,73 -208,748 -216,777 -22,77 -27,158 84,158 175,0 741,0 741,0 0,0 15,395 -472,395 -487,0 -622,0 -702,0 -171,0 -405,-72 -314,-395 24,-84 282,-1016 317,-1138z"/>
  <path class="fil1" d="M970 3010l-135 0c-16,0 -28,-4 -37,-12 -9,-8 -14,-20 -14,-35 0,-14 4,-28 11,-44l38 -85c1,-2 3,-3 6,-3l98 0c2,0 4,1 4,2 0,0 0,1 0,1l-43 98c-7,16 -11,27 -11,34 0,10 5,14 16,14l83 0c24,0 45,-21 64,-64l36 -82c1,-2 3,-3 6,-3l34 0c2,0 3,1 3,2 0,1 -13,29 -38,86 -11,25 -27,46 -48,63 -23,19 -48,28 -73,28z"/>
  <path class="fil1" d="M1348 3010l-165 0c-16,0 -28,-4 -37,-12 -10,-8 -15,-20 -15,-35 0,-12 3,-25 9,-39l41 -92c1,-2 3,-3 6,-3l100 0c2,0 3,1 3,2 0,0 0,1 0,1l-47 105c-6,13 -9,22 -9,28 0,9 7,13 20,13l107 0c2,0 3,1 3,2 0,0 0,1 0,1l-11 24c-1,2 -3,3 -6,3z"/>
  <path class="fil1" d="M1669 2861l-65 146c-1,2 -3,3 -6,3l-95 0c-2,0 -3,-1 -3,-2 0,0 22,-49 65,-147l-73 0c-2,0 -4,-1 -4,-2 0,0 4,-9 11,-25 1,-2 3,-3 6,-3l254 0c2,0 3,1 3,2 0,0 -4,9 -11,26 -1,2 -3,3 -6,3l-76 0z"/>
  <path class="fil1" d="M1834 3010l-95 0c-2,0 -3,-1 -3,-2 0,0 26,-59 78,-174 1,-2 3,-3 6,-3l95 0c2,0 3,1 3,2 0,0 -26,59 -78,175 -1,2 -3,3 -6,3z"/>
  <path class="fil1" d="M2259 3010l-94 0c-2,0 -4,-1 -4,-2 0,0 11,-24 32,-71l-114 73c-2,1 -5,2 -12,2 -8,0 -12,0 -13,-1l-59 -73 -31 70c-1,2 -3,3 -6,3l-36 0c-2,0 -4,-1 -4,-2 0,0 26,-59 78,-175 1,-2 3,-3 6,-3l39 0c2,0 3,0 3,1l72 116 185 -116c1,-1 3,-1 4,-1l34 0c2,0 4,1 4,2 0,0 -26,59 -78,175 -1,2 -3,3 -6,3z"/>
  <path class="fil1" d="M2718 3014l-118 0c-2,0 -3,0 -3,-1l-75 -116 -130 86 139 0c2,0 3,1 3,2 0,0 -4,9 -11,25 -1,2 -3,3 -6,3l-202 0c-3,0 -4,-1 -4,-2 0,-1 1,-2 3,-3l265 -173c1,-1 3,-1 4,-1l28 0c2,0 3,0 3,1 72,116 108,175 108,175 0,3 -2,4 -6,4z"/>
  <path class="fil1" d="M3028 2864l-65 146c-1,2 -3,3 -6,3l-95 0c-2,0 -3,-1 -3,-2 0,0 22,-49 65,-147l-73 0c-2,0 -4,-1 -4,-2 0,0 4,-9 11,-25 1,-2 3,-3 6,-3l254 0c2,0 3,1 3,2 0,0 -4,9 -11,26 -1,2 -3,3 -6,3l-76 0z"/>
  <path class="fil1" d="M3399 2931l-127 0c-2,0 -3,-1 -3,-2 0,0 4,-9 11,-25 1,-2 3,-3 6,-3l127 0c2,0 3,1 3,3 0,0 -4,9 -11,25 -1,2 -3,3 -6,3zm-37 83l-178 0c-16,0 -29,-4 -38,-12 -10,-9 -15,-21 -15,-36 0,-13 3,-27 10,-42 11,-25 28,-46 49,-63 23,-18 48,-27 74,-27l178 0c2,0 3,1 3,2 0,0 0,1 0,1l-11 24c-1,2 -3,3 -6,3l-120 0c-12,0 -23,4 -31,12 -5,5 -11,15 -17,29l-13 29c-7,15 -10,26 -10,33 0,10 6,15 18,15l120 0c2,0 4,1 4,2 0,0 0,1 0,1l-11 24c-1,2 -3,3 -7,3z"/>
  <path class="fil1" d="M3881 2931l-127 0c-2,0 -3,-1 -3,-2 0,0 4,-9 11,-25 1,-2 3,-3 6,-3l127 0c2,0 3,1 3,3 0,0 -4,9 -11,25 -1,2 -3,3 -6,3zm-191 83l-100 0c-2,0 -3,-1 -3,-2 0,-1 14,-31 41,-92 11,-24 26,-44 48,-60 23,-17 46,-26 71,-26l178 0c2,0 3,1 3,2 0,0 0,1 0,1l-11 24c-1,2 -3,3 -6,3l-120 0c-12,0 -23,4 -30,12 -5,5 -11,15 -17,29l-47 105c-1,2 -3,3 -6,3z"/>
  <path class="fil1" d="M4014 3014l-95 0c-2,0 -3,-1 -3,-2 0,0 26,-59 78,-175 1,-2 3,-3 6,-3l95 0c2,0 3,1 3,2 0,0 -26,59 -78,175 -1,2 -3,3 -6,3z"/>
  <path class="fil1" d="M4354 3014l-187 0c-16,0 -29,-4 -38,-12 -10,-9 -15,-21 -15,-36 0,-13 3,-27 10,-42 12,-25 28,-46 49,-63 23,-18 48,-27 74,-27l168 0c2,0 4,1 4,2 0,0 0,1 0,1l-11 24c-1,2 -3,3 -6,3l-110 0c-12,0 -23,4 -31,12 -5,5 -11,15 -17,29l-13 29c-7,15 -10,26 -10,33 0,10 6,15 18,15l29 0 38 -85c1,-2 3,-3 6,-3l94 0c2,0 4,1 4,2 0,0 -17,38 -50,113 -1,2 -3,3 -6,3z"/>
  <path class="fil1" d="M4711 3014l-95 0c-2,0 -3,-1 -3,-2 0,0 12,-27 36,-80l-80 0 -35 79c-1,2 -3,3 -6,3l-95 0c-2,0 -3,-1 -3,-2 0,0 26,-59 78,-175 1,-2 3,-3 6,-3l95 0c2,0 3,1 3,2 0,0 -9,22 -28,64l80 0 28 -63c1,-2 3,-3 6,-3l95 0c2,0 3,1 3,2 0,0 -26,59 -77,175 -1,2 -3,3 -6,3z"/>
  <path class="fil1" d="M5023 2864l-65 146c-1,2 -3,3 -6,3l-95 0c-2,0 -3,-1 -3,-2 0,0 22,-49 65,-147l-73 0c-2,0 -4,-1 -4,-2 0,0 4,-9 11,-25 1,-2 3,-3 6,-3l254 0c2,0 3,1 3,2 0,0 -4,9 -11,26 -1,2 -3,3 -6,3l-76 0z"/>
  <path class="fil1" d="M5201 3014l-95 0c-2,0 -3,-1 -3,-2 0,0 26,-59 78,-175 1,-2 3,-3 6,-3l95 0c2,0 3,1 3,2 0,0 -26,59 -78,175 -1,2 -3,3 -6,3z"/>
  <path class="fil1" d="M5583 3014l-42 0c-4,0 -9,-1 -16,-4l-180 -72 -32 73c-1,2 -3,3 -6,3l-36 0c-2,0 -4,-1 -4,-2 0,0 0,-1 0,-1l77 -173c1,-2 3,-3 6,-3l40 0c3,0 8,1 13,3l183 74 33 -74c1,-2 3,-3 6,-3l36 0c2,0 3,1 3,2 0,0 0,1 0,1l-77 173c-1,2 -3,3 -6,3z"/>
  <path class="fil1" d="M5917 3014l-187 0c-16,0 -29,-4 -38,-12 -10,-9 -15,-21 -15,-36 0,-13 3,-27 10,-42 12,-25 28,-46 49,-63 23,-18 48,-27 74,-27l168 0c2,0 4,1 4,2 0,0 0,1 0,1l-11 24c-1,2 -3,3 -6,3l-110 0c-12,0 -23,4 -31,12 -5,5 -11,15 -17,29l-13 29c-7,15 -10,26 -10,33 0,10 6,15 18,15l29 0 38 -85c1,-2 3,-3 6,-3l94 0c2,0 4,1 4,2 0,0 -17,38 -50,113 -1,2 -3,3 -6,3z"/>
  <path class="fil1" d="M1603 3441l-307 0c-28,0 -49,-7 -65,-20 -17,-15 -25,-36 -25,-63 0,-23 6,-47 17,-73 20,-43 48,-80 85,-108 40,-31 82,-47 127,-47l307 0c4,0 6,1 6,4 0,1 0,1 0,2l-19 42c-2,4 -5,5 -11,5l-207 0c-21,0 -39,7 -52,21 -9,9 -19,26 -30,50l-22 49c-12,26 -17,45 -17,57 0,18 10,26 31,26l207 0c4,0 6,1 6,4 0,1 0,1 0,2l-19 42c-2,4 -5,6 -11,6z"/>
  <path class="fil1" d="M1994 3334l-95 0c-2,0 -3,-1 -3,-2 0,0 12,-27 36,-80l-80 0 -35 79c-1,2 -3,3 -6,3l-95 0c-2,0 -3,-1 -3,-2 0,0 26,-59 78,-175 1,-2 3,-3 6,-3l95 0c2,0 3,1 3,2 0,0 -9,22 -28,64l80 0 28 -63c1,-2 3,-3 6,-3l95 0c2,0 3,1 3,2 0,0 -26,59 -77,175 -1,2 -3,3 -6,3z"/>
  <path class="fil1" d="M2464 3331l-118 0c-2,0 -3,0 -3,-1l-75 -116 -130 86 139 0c2,0 3,1 3,2 0,0 -4,9 -11,25 -1,2 -3,3 -6,3l-202 0c-3,0 -4,-1 -4,-2 0,-1 1,-2 3,-3l265 -173c1,-1 3,-1 4,-1l28 0c2,0 3,0 3,1 72,116 108,174 108,175 0,3 -2,4 -6,4z"/>
  <path class="fil1" d="M2869 3333l-94 0c-2,0 -4,-1 -4,-2 0,0 10,-24 32,-71l-114 73c-2,1 -5,2 -12,2 -8,0 -12,0 -13,-1l-59 -73 -31 70c-1,2 -3,3 -6,3l-36 0c-2,0 -4,-1 -4,-2 0,0 26,-59 78,-174 1,-2 3,-3 6,-3l39 0c2,0 3,0 3,1l72 116 185 -116c1,-1 3,-1 4,-1l34 0c2,0 4,1 4,2 0,0 -26,58 -78,174 -1,2 -3,3 -6,3z"/>
  <path class="fil1" d="M3197 3251l-100 0c-2,0 -3,-1 -3,-2 0,-1 0,-1 0,-1l11 -24c1,-2 3,-3 6,-3l34 0c7,0 13,-1 20,-4 7,-3 12,-8 14,-13 1,-2 1,-4 1,-6 0,-8 -7,-12 -20,-12l-54 0 -65 146c-1,2 -3,3 -6,3l-94 0c-2,0 -4,-1 -4,-2 0,0 26,-59 78,-174 1,-2 3,-3 6,-3l226 0c12,0 21,2 28,6 9,5 14,13 14,24 0,13 -6,26 -19,39 -19,19 -44,29 -73,29z"/>
  <path class="fil1" d="M3378 3331l-95 0c-2,0 -3,-1 -3,-2 0,0 26,-59 77,-174 1,-2 3,-3 6,-3l95 0c2,0 3,1 3,2 0,0 -26,59 -78,174 -1,2 -3,3 -6,3z"/>
  <path class="fil1" d="M3698 3198c0,-9 -6,-14 -19,-14l-23 0c-12,0 -22,4 -29,13 -5,5 -10,15 -16,28l-13 29c-7,16 -11,27 -11,34 0,10 6,14 17,14l23 0c12,0 23,-5 32,-16 6,-7 12,-18 19,-32l13 -29c6,-13 8,-22 8,-28zm-28 136l-135 0c-16,0 -29,-4 -38,-12 -10,-9 -15,-21 -15,-36 0,-13 3,-27 10,-42 11,-25 27,-46 49,-63 23,-18 48,-27 74,-27l135 0c16,0 29,4 38,12 10,8 15,20 15,36 0,13 -4,27 -11,43 -11,25 -27,46 -49,63 -24,18 -48,28 -74,28z"/>
  <path class="fil1" d="M4123 3331l-42 0c-4,0 -9,-1 -16,-4l-180 -72 -32 73c-1,2 -3,3 -6,3l-36 0c-2,0 -4,-1 -4,-2 0,0 0,-1 0,-1l77 -173c1,-2 3,-3 6,-3l40 0c3,0 8,1 13,3l183 74 33 -74c1,-2 3,-3 6,-3l36 0c2,0 3,1 3,2 0,0 0,1 0,1l-77 173c-1,2 -3,3 -6,3z"/>
  <path class="fil1" d="M4349 3331l-151 0c-2,0 -4,-1 -4,-2 0,0 0,-1 0,-1l11 -24c1,-2 3,-3 6,-3l117 0 -66 -60c-13,-11 -19,-23 -19,-34 0,-13 8,-25 23,-35 12,-8 25,-13 41,-17 10,-2 20,-3 30,-3l161 0c2,0 3,1 3,2 0,0 0,1 0,1l-11 24c-1,2 -3,3 -6,3l-117 0 65 61c16,15 24,29 24,42 0,18 -14,31 -42,39 -19,5 -40,8 -64,8z"/>
  <path class="fil1" d="M4783 3331l-95 0c-2,0 -3,-1 -3,-2 0,0 12,-27 36,-80l-80 0 -35 79c-1,2 -3,3 -6,3l-95 0c-2,0 -3,-1 -3,-2 0,0 26,-59 78,-174 1,-2 3,-3 6,-3l95 0c2,0 3,1 3,2 0,0 -9,22 -28,64l80 0 28 -63c1,-2 3,-3 6,-3l95 0c2,0 3,1 3,2 0,0 -26,59 -77,174 -1,2 -3,3 -6,3z"/>
  <path class="fil1" d="M4949 3331l-95 0c-2,0 -3,-1 -3,-2 0,0 26,-59 77,-174 1,-2 3,-3 6,-3l95 0c2,0 3,1 3,2 0,0 -26,59 -78,174 -1,2 -3,3 -6,3z"/>
  <path class="fil1" d="M5471 3301l-173 0c-4,0 -6,-1 -6,-4 0,-1 0,-2 0,-2l19 -42c2,-4 5,-6 11,-6l58 0c12,0 23,-3 34,-8 12,-6 21,-13 25,-23 1,-4 2,-7 2,-10 0,-14 -11,-20 -34,-20l-93 0 -112 252c-2,4 -5,6 -11,6l-163 0c-4,0 -6,-1 -6,-4 0,-1 45,-101 134,-301 2,-4 5,-6 11,-6l389 0c20,0 36,4 49,11 16,9 24,23 24,41 0,23 -11,46 -33,67 -33,33 -75,49 -126,49z"/>
 </g>
</svg>
