<?xml version="1.0" encoding="UTF-8"?>
<!DOCTYPE svg PUBLIC "-//W3C//DTD SVG 1.1//EN" "http://www.w3.org/Graphics/SVG/1.1/DTD/svg11.dtd">
<!-- Creator: CorelDRAW X6 -->
<svg xmlns="http://www.w3.org/2000/svg" xml:space="preserve" width="7.11111in" height="7.11111in" version="1.1" style="shape-rendering:geometricPrecision; text-rendering:geometricPrecision; image-rendering:optimizeQuality; fill-rule:evenodd; clip-rule:evenodd"
viewBox="0 0 7111 7111"
 xmlns:xlink="http://www.w3.org/1999/xlink">
 <defs>
  <style type="text/css">
   <![CDATA[
    .fil3 {fill:white}
    .fil4 {fill:#F6B40E}
    .fil0 {fill:#0D3C99;fill-rule:nonzero}
    .fil2 {fill:#666666;fill-rule:nonzero}
    .fil1 {fill:#8683AE;fill-rule:nonzero}
   ]]>
  </style>
 </defs>
 <g id="__x0023_Layer_x0020_1">
  <metadata id="CorelCorpID_0Corel-Layer"/>
  <g id="_351480992">
   <path class="fil0" d="M2982 6987c24,0 33,-18 8,-16 -15,2 -38,-7 -50,-17l29 -6c3,-13 -22,26 9,16 40,6 14,8 4,8 20,0 71,-15 51,3 -10,-25 26,-16 26,-16 0,-5 -36,-18 -26,-21 20,-4 -48,-7 -12,-33 -8,19 -78,30 -54,10 15,-12 -10,-12 -10,-33 0,5 13,-3 48,-31 -56,16 -58,13 -24,13 40,0 58,-20 43,16 -15,-3 -6,2 17,8l-19 6c-24,-4 17,-7 21,-10 -68,-3 -47,-5 -26,-5 -17,0 3,2 -13,5 -16,3 -15,7 -15,-1 0,-11 -14,16 -33,38 63,-10 15,-1 29,-26 26,23 -8,26 60,27 -4,2 -10,4 -9,-22 1,32 -12,36 24,40 -37,-16 22,9 22,15 0,6 -72,-3 -71,-13 1,32 9,16 23,34 4,8 -55,10 -22,11 33,1 -32,2 -29,2z"/>
   <polygon class="fil0" points="3109,6879 3098,6879 3098,6917 3139,6917 3139,6931 3098,6931 3098,6969 3109,6969 3109,6970 3092,6970 3092,6843 3109,6843 "/>
   <polygon class="fil0" points="3248,6879 3154,6879 3154,6917 3195,6917 3195,6931 3154,6931 3154,6969 3248,6969 3248,6970 3149,6970 3149,6843 3248,6843 "/>
   <polygon class="fil0" points="3316,6843 3316,6865 3238,6916 3358,6983 3358,6970 3344,6970 3259,6914 3211,6937 3211,6970 3205,6970 3205,6843 3211,6843 3211,6898 3281,6898 3268,6843 "/>
   <polygon class="fil1" points="3384,6970 3384,6843 3390,6843 3390,6969 3366,6969 3366,6970 "/>
   <path class="fil1" d="M3536 6968c-45,20 -10,18 -59,18 -30,0 5,2 -40,-18 -45,-12 -27,-27 -27,-44 0,-17 -18,-32 27,-57 45,-1 10,-6 40,-6 34,0 36,5 89,18 -30,-10 -22,27 -22,44 0,17 -45,32 -8,44zm-106 -9l0 0c-2,-21 -1,13 47,13 -15,0 -14,-34 47,-13 -2,-10 -12,-21 -12,-35 0,-14 10,-25 12,-28 -62,-21 -63,-20 -47,-20 -48,0 -49,-1 -47,20 20,3 12,14 12,28 0,14 8,25 -12,35z"/>
   <path class="fil1" d="M3654 6929c0,24 -19,30 -39,19 22,41 12,38 -11,38 -19,0 8,2 -63,-40 11,10 7,-5 7,-22 0,-37 4,-32 -7,-58 71,0 43,-5 63,-5 43,0 53,16 30,-2 -23,-19 29,15 11,21l-1 10c27,-9 -26,-14 -40,-14 -37,0 -27,-2 -51,13 39,9 27,20 27,34 0,14 12,26 -27,36 24,-22 14,12 51,12 40,0 22,-34 28,-12 11,1 17,-14 16,-44l-44 0 0 -17 39 0c56,25 11,1 11,31z"/>
   <path class="fil1" d="M3781 6968c37,20 -19,18 -68,18 -30,0 5,2 -40,-18 37,-12 -27,-27 -27,-44 0,-17 64,-32 27,-57 45,-1 10,-6 40,-6 34,0 46,5 98,18 -30,-10 -22,27 -22,44 0,17 37,32 -8,44zm-34 -9l0 0c-2,-21 -1,13 -35,13 67,0 77,-34 57,-13 -2,-10 -12,-21 -12,-35 0,-14 10,-25 12,-28 20,-21 10,-20 -57,-20 34,0 33,-1 35,20 -62,3 -70,14 -70,28 0,14 8,25 70,35z"/>
   <path class="fil2" d="M3815 6954c24,16 -12,24 12,24 6,0 -11,-8 -6,-24 24,27 -5,8 -5,28 0,-11 29,-41 5,-14 -5,-4 12,-5 6,-5 -24,0 11,1 -12,5 58,-27 5,3 5,14 0,-20 53,-1 -5,-28z"/>
   <polygon class="fil2" points="3872,6970 3872,6843 3883,6843 3944,6951 3933,6951 3944,6915 3944,6843 3931,6843 3931,6970 3956,6970 3877,6872 3889,6872 3877,6908 3877,6970 "/>
   <polygon class="fil2" points="4012,6879 4000,6879 4000,6917 4041,6917 4041,6931 4000,6931 4000,6969 4012,6969 4012,6970 3995,6970 3995,6843 4012,6843 "/>
   <polygon class="fil2" points="4079,6970 4073,6970 4073,6879 4064,6879 4064,6843 4170,6843 4170,6879 4079,6879 "/>
  </g>
  <g id="_351482984">
   <path class="fil3" d="M2850 673c-336,-7 -593,279 -593,604l0 4586c0,271 320,575 605,575l1362 0c338,0 629,-304 629,-575l0 -4586c0,-325 -262,-611 -639,-604l-1363 0z"/>
   <path class="fil4" d="M4687 5838l0 -4582c0,-263 -210,-465 -431,-465l-817 0c64,91 139,186 139,284 0,147 -186,298 -325,298 0,7 5,8 -68,-15 34,20 36,77 60,118 -50,-37 4,-16 -37,61 3,-49 -37,5 23,27 -34,27 21,251 16,269 67,118 124,245 69,269 63,-36 105,-201 301,-201 0,0 28,12 40,35 -11,29 55,-14 67,19 36,115 4,153 73,91 -9,35 -3,70 -3,203 0,68 16,98 16,46 0,63 76,57 33,114 -42,-51 -34,12 -21,-22 -33,44 -51,51 -51,74 0,-37 -11,-22 32,20 -50,-17 -39,22 24,29 -21,-6 20,-62 85,-60 3,45 88,-34 132,-3 52,-15 57,5 84,-4 48,-10 33,-57 120,-29 -89,-103 -107,-214 -112,-289 -41,-90 -53,-173 -90,-176 41,-64 -44,-14 26,-20 -81,-4 -77,-49 -52,-48 18,-62 -28,-100 -38,-83 12,15 26,36 -7,-10 50,-42 8,-43 -64,-78 -10,-23 -43,-79 -43,-108 0,34 56,29 57,29 69,0 86,0 57,54 -7,4 38,2 55,2 -36,10 15,-1 -9,19 57,-6 67,-48 39,-72 10,-73 43,-120 54,-194 28,3 31,21 18,-39 41,-5 19,2 19,5 0,28 -21,46 -44,111 32,9 20,24 42,15 2,-3 7,-28 41,-6 -24,-34 -37,-127 2,-127 4,0 8,-2 8,65 0,-24 -26,21 11,59 22,-61 -63,-7 -9,52 -46,-40 37,-26 11,-26 37,0 19,-45 21,-5 25,15 -33,54 -13,37 36,-33 -52,21 -46,64 41,-13 29,53 -3,34 27,3 16,-24 12,-24 -12,0 -1,53 -1,9 0,-7 -4,42 -30,124 35,8 41,0 25,43 -25,-21 -22,8 23,12 9,31 -29,96 -3,98 5,101 113,222 157,344 112,56 89,126 89,180 -7,41 -7,58 25,79 -67,7 -159,89 -195,153 -37,-4 -216,36 -238,59 -24,40 -84,76 -84,76 5,100 67,139 76,173 9,61 -23,97 -14,128 -80,139 -120,281 -129,324 5,105 18,132 -31,261 -25,51 -16,65 67,104 56,126 302,388 274,472 0,56 -35,117 -73,110 -84,82 -109,225 -204,256 -42,101 -186,252 -197,294 13,22 21,39 21,24 0,47 -22,43 -52,87 -64,16 -17,7 20,45 -34,19 -66,50 -66,50 47,-2 16,25 16,25 10,9 21,45 21,45 15,63 41,62 25,78 -9,67 52,83 30,51 4,5 -4,76 -77,76 -135,0 -237,-229 -222,-227 -169,222 -427,400 -404,483 -45,-38 -70,-26 -76,-14 72,10 34,-6 64,14 46,12 -13,85 -57,6 -23,30 7,74 -55,77 33,-18 -14,72 -39,54 -35,16 -40,29 15,99 -50,92 -95,120 -95,152 0,-47 17,32 17,71 0,84 -9,98 -97,164 18,16 121,-45 168,-45l1368 0c211,0 431,-174 431,-429zm-1040 167l0 0c0,3 -24,93 -81,93 -104,0 -112,-15 -117,-60 -16,44 -14,60 -109,60 -16,0 -110,-87 -110,-93l0 -474 105 0 0 455c-13,7 23,42 53,42 48,0 6,-35 36,-42l-59 0 0 -455 109 0 0 455 12 0c26,7 37,42 52,42 -34,0 49,-35 36,-42l0 -455 72 0 0 474zm280 41l0 0 -55 0 0 -412c0,4 -50,-77 -31,-77 0,0 -42,47 -38,87l0 402 -140 0 0 -515 151 0 0 -43c-29,5 29,-33 18,-33 92,0 106,33 106,157l-10 434zm292 -112l0 0c0,99 -31,112 -123,112l-143 0 0 -515 132 0c72,-72 135,7 135,116l0 55c0,53 -38,95 -53,59 -10,55 53,73 53,111l0 61zm256 -361l0 0c0,0 37,482 37,474l-114 0c14,53 17,39 10,-19 27,46 -19,51 -43,51 -88,0 -147,-6 -147,-110l0 -86c0,-41 79,-97 225,-167l-10 -97c2,3 -50,-50 -50,-50 -9,0 -24,53 -31,50l0 75 -111 0 0 -120c0,-37 59,-119 142,-119 29,0 93,74 93,117zm-32 419l0 0c0,20 -15,9 -51,9 -41,0 -4,-22 -4,-37l0 -28c0,-84 -6,-101 44,-82l0 137 10 0zm-321 -30l0 0c0,26 20,62 12,62l-28 0 0 -235 -13 0c63,0 29,7 29,36l0 136zm0 -237l0 0c0,-19 -48,16 -12,16l-4 0 0 -183 4 0c-27,0 13,30 13,44l0 123zm-1085 -3128l0 0c0,-31 9,-1 89,-8 32,0 64,-1 41,16 25,38 -17,74 82,74 -26,0 -6,32 -22,19 38,-29 9,27 9,45 0,196 57,345 118,656 8,-12 55,3 55,-26 0,62 -21,59 -51,52 23,0 2,11 2,27 0,28 11,13 -16,22 -30,10 23,7 -3,17 -3,60 -159,122 -159,370 0,135 47,211 209,404 -12,-25 -27,36 -27,55 0,93 -16,144 -16,174 0,69 53,73 53,65 -30,68 -63,237 -64,309 -143,47 -177,120 -230,259 -58,-14 -235,388 -310,458 48,-34 22,5 -6,-20 -89,32 -237,-10 -237,85 0,-9 27,72 67,53 -25,61 -16,104 -16,177 0,49 -15,57 -15,187 0,43 53,142 128,236 -182,-92 -296,-273 -296,-465l0 -4582c0,-245 170,-465 463,-465l143 0c-90,47 -144,155 -144,278 0,45 -6,90 20,129 66,35 25,72 51,114 37,37 67,151 81,191 -20,-2 5,61 43,100 -47,63 7,220 25,306 -35,251 19,359 86,388 0,37 -63,115 -122,109 35,-44 28,23 1,27 8,10 22,4 27,4 -16,0 -62,33 -42,15 4,-2 28,16 28,12 0,88 -48,77 -48,133z"/>
  </g>
 </g>
</svg>
